<svg width="235" height="93" viewBox="0 0 235 93" fill="none" xmlns="http://www.w3.org/2000/svg">
<path d="M101.748 8.23819C102.984 13.4528 102.843 20.0872 99.4234 24.0189C99.0378 24.4621 99.3549 25.1468 99.9423 25.1324C104.606 25.0027 108.368 25.7703 108.371 29.8641C108.371 30.383 108.916 30.7146 109.366 30.4587C112.689 28.5992 118.48 28.3361 120.404 32.6245C120.642 33.1543 121.377 33.1615 121.626 32.639C123.518 28.6208 127.442 25.3054 134.188 27.1865C134.686 27.3271 135.161 26.873 135.017 26.3757C134.077 23.0927 134.927 17.4637 138.196 14.7537C138.671 14.3609 138.376 13.5789 137.76 13.5825C131.421 13.5933 129.525 10.5554 131.327 7.06698C131.587 6.56607 131.125 5.98947 130.581 6.11921C125.273 7.38411 122.008 5.69036 120.383 0.464973C120.228 -0.0359441 119.579 -0.162074 119.237 0.234335C114.354 5.89938 110.793 8.33549 102.469 7.42375C102.011 7.3733 101.64 7.79133 101.744 8.23819H101.748Z" fill="#351106"/>
<path d="M125.26 30.1971L125.27 30.1375C125.386 29.506 125.539 29.014 125.73 28.6615C125.921 28.309 126.152 28.0368 126.424 27.8451C126.696 27.6533 127.011 27.4878 127.369 27.3485C127.585 27.263 127.785 27.1526 127.969 27.0172C128.153 26.8785 128.309 26.7093 128.435 26.5094C128.565 26.3102 128.653 26.0797 128.698 25.818C128.754 25.4934 128.727 25.1987 128.616 24.9339C128.505 24.6691 128.333 24.45 128.1 24.2767C127.867 24.1034 127.595 23.9899 127.284 23.9361C127.012 23.8891 126.741 23.9002 126.47 23.9692C126.199 24.0383 125.958 24.1792 125.747 24.3918C125.536 24.6043 125.384 24.9038 125.29 25.29L124.038 25.0735C124.161 24.515 124.39 24.0583 124.725 23.7033C125.062 23.3489 125.468 23.1036 125.942 22.9672C126.419 22.8314 126.926 22.8098 127.463 22.9026C128.046 23.0034 128.532 23.207 128.923 23.5133C129.317 23.8202 129.596 24.196 129.761 24.6408C129.93 25.0861 129.97 25.5671 129.88 26.0838C129.817 26.4482 129.704 26.768 129.54 27.0433C129.38 27.3192 129.176 27.5551 128.927 27.7508C128.681 27.9472 128.398 28.1096 128.075 28.238C127.752 28.3698 127.485 28.5216 127.275 28.6932C127.065 28.8616 126.897 29.0764 126.77 29.3376C126.643 29.5988 126.54 29.9341 126.463 30.3437L126.452 30.4033L125.26 30.1971ZM125.387 33.2484C125.142 33.206 124.947 33.0819 124.802 32.876C124.657 32.6701 124.605 32.4445 124.648 32.1994C124.69 31.9543 124.814 31.7592 125.02 31.614C125.226 31.4688 125.451 31.4174 125.696 31.4598C125.942 31.5021 126.137 31.6263 126.282 31.8322C126.427 32.0381 126.479 32.2636 126.436 32.5087C126.408 32.671 126.341 32.8129 126.235 32.9344C126.132 33.0564 126.005 33.1471 125.855 33.2065C125.709 33.263 125.553 33.277 125.387 33.2484Z" fill="white"/>
<path d="M121.895 22.0835L120.531 29.3798L119.379 29.1805L120.544 21.8498L121.895 22.0835ZM119.446 32.2214C119.201 32.179 119.006 32.0549 118.861 31.849C118.716 31.6431 118.664 31.4176 118.707 31.1725C118.749 30.9274 118.873 30.7322 119.079 30.587C119.285 30.4418 119.511 30.3904 119.756 30.4328C120.001 30.4752 120.196 30.5993 120.341 30.8052C120.486 31.0111 120.538 31.2366 120.495 31.4817C120.467 31.644 120.4 31.7859 120.294 31.9074C120.191 32.0295 120.064 32.1202 119.914 32.1795C119.768 32.2361 119.612 32.25 119.446 32.2214Z" fill="white"/>
<path d="M115.428 28.1595C114.869 28.1595 114.602 27.6875 114.321 27.1901L114.3 27.1541C114.055 26.7253 113.882 26.3541 113.698 25.9613L113.565 25.6766C113.482 25.5072 113.395 25.3414 113.312 25.1829C113.107 24.7937 112.916 24.4261 112.779 24.0117C112.678 23.7126 112.516 23.4315 112.343 23.136C112.246 22.9702 112.152 22.808 112.069 22.6459L111.993 22.4909C111.766 22.0224 111.619 21.7125 111.37 21.4783C111.179 21.3125 111.002 21.0134 110.732 20.5377C110.656 20.4043 110.581 20.271 110.509 20.1557C110.368 19.9287 110.224 19.7485 110.087 19.5755C109.932 19.3845 109.788 19.2043 109.665 18.9845C109.647 18.9556 109.543 18.8475 109.449 18.7538C109.247 18.5484 108.999 18.2926 108.811 17.9574C108.649 17.6655 108.523 17.5682 108.245 17.3484C108.188 17.3015 108.123 17.2511 108.054 17.197C107.979 17.1322 107.892 17.0889 107.795 17.0385C107.478 16.8799 106.999 16.6421 106.865 15.7988C106.84 15.6474 106.649 14.3249 107.287 13.8528C107.46 13.7339 107.626 13.6762 107.802 13.6762C108.076 13.6762 108.285 13.8059 108.552 13.9681L108.591 13.9933L108.707 14.0726C108.909 14.2096 109.017 14.2888 109.319 14.5519C109.395 14.6168 109.474 14.6816 109.561 14.7501C109.723 14.8798 109.907 15.0276 110.109 15.2222C110.213 15.3231 110.285 15.3663 110.375 15.424C110.494 15.4997 110.638 15.5898 110.822 15.7772C110.952 15.8925 111.071 16.0114 111.193 16.1375C111.312 16.2601 111.438 16.3898 111.597 16.5267C111.705 16.6204 111.806 16.6817 111.914 16.7466C112.134 16.8763 112.404 17.0385 112.613 17.4169C112.635 17.4493 112.667 17.4781 112.703 17.4997C112.808 17.3556 112.966 17.0421 113.06 16.6529L113.071 16.6096L113.136 16.4114C113.226 16.1411 113.233 16.1195 113.265 15.7988C113.287 15.5898 113.356 15.3808 113.431 15.1357C113.518 14.8618 113.615 14.5519 113.662 14.2059C113.68 14.033 113.745 13.7771 113.817 13.478C113.889 13.1789 113.972 12.8437 113.993 12.6347C114.004 12.2455 114.112 11.8167 114.213 11.4023C114.26 11.2113 114.311 11.0203 114.347 10.8365L114.646 9.0238L114.689 8.80397C114.765 8.41477 114.811 8.18053 114.829 7.83457C114.844 7.4706 114.703 7.07059 114.613 6.95166C114.415 6.85076 114.264 6.68138 114.163 6.56606C114.159 6.56246 114.156 6.55886 114.152 6.55165C114.073 6.53724 113.997 6.51201 113.925 6.48678C113.633 6.74625 113.258 6.76787 113.038 6.78229C112.977 6.78229 112.887 6.7895 112.858 6.80031L112.75 6.84715C112.437 6.9841 112.202 7.0814 112.004 7.11383C111.943 7.12464 111.752 7.20753 111.64 7.25798C111.55 7.29762 111.46 7.33726 111.381 7.36969C111.294 7.40213 111.201 7.45618 111.107 7.50664C110.937 7.60033 110.786 7.68322 110.631 7.71925C110.57 7.74448 110.512 7.78412 110.44 7.83457C110.314 7.92106 110.159 8.02557 109.932 8.10485C109.928 8.10485 109.874 8.1517 109.835 8.18413C109.676 8.31387 109.413 8.53009 108.999 8.53369C108.97 8.54451 108.865 8.62379 108.8 8.67064C108.7 8.74631 108.595 8.8292 108.472 8.88326C108.436 8.90127 108.397 8.9301 108.354 8.95893C108.177 9.07786 107.914 9.25083 107.582 9.27246C107.568 9.28687 107.55 9.30129 107.532 9.3157C107.399 9.42381 107.2 9.58598 106.926 9.65085C106.872 9.67607 106.797 9.72292 106.728 9.76617C106.519 9.8923 106.281 10.0364 106.015 10.0797C105.99 10.0905 105.853 10.1878 105.77 10.2455C105.618 10.35 105.463 10.4545 105.305 10.5157L105.251 10.5374L105.193 10.5482C105.107 10.5662 104.89 10.7175 104.771 10.8004C104.714 10.8401 104.66 10.8797 104.606 10.9158C104.465 11.0347 104 11.4131 103.698 11.55C103.698 11.5572 103.651 11.6185 103.615 11.6689C103.561 11.7446 103.499 11.8275 103.424 11.9212C103.186 12.2059 102.923 12.2635 102.746 12.2635C102.436 12.2635 102.209 12.0942 102.058 11.9788C102.033 11.9608 102.007 11.9392 101.982 11.9248C101.716 11.7518 101.463 11.4779 101.146 11.0959L101.11 11.0491C100.948 10.8293 100.674 10.4617 100.447 9.96077L100.288 9.61481C100.173 9.35895 100.094 9.17876 100 9.00218C99.9713 8.94812 99.9389 8.88686 99.9028 8.8256C99.7551 8.56613 99.5713 8.2454 99.4308 7.7625C99.3479 7.51745 99.247 7.04536 99.2686 6.28498V6.24533C99.3551 5.38044 99.8524 5.28675 100.065 5.28675C100.288 5.28675 100.472 5.38765 100.624 5.48495L100.642 5.49576L100.66 5.51018C100.854 5.66153 100.955 5.85253 101.027 5.98947H101.052L101.193 6.112C101.33 6.23452 101.456 6.4111 101.586 6.5985C101.618 6.64174 101.654 6.6994 101.69 6.74985C101.773 6.76067 101.849 6.78229 101.917 6.80031C101.968 6.81472 102.033 6.83274 102.069 6.83634L102.134 6.80751C102.346 6.72102 102.634 6.5985 102.962 6.5985C103.045 6.5985 103.128 6.60571 103.211 6.62372C103.215 6.62372 103.218 6.62372 103.225 6.62372C103.28 6.56246 103.355 6.49039 103.467 6.44714C103.582 6.39309 103.705 6.36786 103.831 6.36786C103.853 6.36786 103.874 6.36786 103.896 6.36786C104.094 6.112 104.411 6.06875 104.577 6.04713C104.609 6.04353 104.653 6.03632 104.681 6.03271C104.948 5.86694 105.096 5.83811 105.438 5.78406C105.445 5.78045 105.499 5.74442 105.532 5.7228C105.662 5.63631 105.856 5.51018 106.123 5.51018H106.181C106.206 5.50297 106.231 5.48495 106.26 5.47053C106.343 5.42729 106.433 5.38044 106.548 5.3372C106.642 5.30116 106.725 5.27954 106.804 5.25792C106.905 5.23269 106.919 5.22909 106.991 5.16782C107.056 5.10296 107.218 4.99845 107.467 4.99845C107.485 4.99845 107.503 4.99845 107.525 4.99845C107.705 4.72457 108.054 4.67772 108.184 4.6597C108.202 4.6597 108.22 4.65609 108.238 4.65249C108.57 4.39302 109.042 4.0831 109.626 4.05067C109.705 4.03265 109.856 3.97139 109.9 3.93535L109.918 3.91733L109.936 3.90292C110.188 3.70471 110.465 3.52092 110.79 3.52092C110.8 3.52092 110.815 3.52092 110.826 3.52092C110.862 3.4993 110.912 3.47047 110.945 3.45245C111.056 3.38398 111.164 3.31911 111.291 3.28668C111.305 3.27587 111.323 3.26506 111.341 3.25425C111.467 3.17497 111.662 3.05604 111.925 3.0128C112.163 2.97316 112.411 2.83261 112.649 2.69567C112.746 2.64162 112.837 2.58756 112.923 2.54432L112.948 2.5299L112.977 2.51909C113.107 2.47224 113.244 2.45062 113.374 2.4326C113.518 2.41098 113.734 2.38215 113.77 2.31728L113.799 2.27043C113.896 2.10466 114.076 1.79474 114.422 1.67222C114.429 1.65059 114.44 1.62897 114.447 1.60735C114.545 1.3623 114.628 1.14607 114.804 1.00913C115.053 0.789305 115.37 0.666779 115.702 0.666779C116.051 0.666779 116.39 0.800116 116.628 1.03075C116.995 1.41635 117.222 1.73708 117.37 1.9497C117.406 2.00015 117.439 2.047 117.467 2.08664L117.655 2.35692C117.882 2.68486 118.138 3.05604 118.451 3.5966C118.855 4.34978 119.121 5.09214 119.269 5.87415C119.381 6.46516 119.312 6.93725 119.075 7.276C118.923 7.49222 118.703 7.63997 118.484 7.67601C118.433 7.69403 118.246 7.87421 118.17 8.25981C118.12 8.59496 118.015 8.86524 117.925 9.09948C117.867 9.24723 117.821 9.37336 117.788 9.5067L117.781 9.53193L117.774 9.55715C117.723 9.7049 117.68 9.91752 117.633 10.1229C117.561 10.4653 117.496 10.7608 117.381 10.9734C117.291 11.1608 117.24 11.4203 117.197 11.6509C117.157 11.8491 117.121 12.0365 117.06 12.1987C116.952 12.4906 116.902 12.6816 116.837 12.941C116.804 13.0672 116.768 13.2077 116.721 13.3771C116.689 13.4852 116.653 13.5861 116.613 13.6978C116.534 13.9321 116.44 14.1951 116.361 14.5303C116.311 14.7393 116.242 14.8979 116.177 15.042C116.094 15.2258 116.029 15.3699 116.011 15.6222C115.965 16.0907 115.828 16.3682 115.727 16.57C115.666 16.6925 115.633 16.761 115.615 16.8511C115.575 17.0817 115.489 17.2835 115.402 17.4817C115.33 17.6511 115.258 17.8133 115.215 18.0007L115.204 18.0439C115.179 18.1232 115.136 18.2385 115.089 18.3646C115.006 18.5881 114.894 18.8944 114.858 19.0566C114.804 19.2836 114.887 19.7773 115.049 20.2097C115.085 20.2926 115.132 20.3971 115.183 20.5089C115.381 20.9593 115.629 21.5179 115.817 22.1954C115.831 22.253 115.878 22.3648 115.929 22.4837C116.022 22.7035 116.148 23.0062 116.289 23.4279L116.296 23.4567L116.365 23.7702C116.444 24.1522 116.538 24.5847 116.624 24.909C116.833 25.7126 116.783 26.246 116.631 26.8982L116.613 26.9595C116.462 27.5109 116.307 28.0839 115.647 28.1199C115.579 28.1343 115.511 28.1451 115.442 28.1451L115.428 28.1595Z" fill="white"/>
<path d="M115.694 1.21454C115.91 1.21454 116.112 1.29742 116.242 1.42716C116.656 1.86321 116.876 2.21637 117.024 2.41458C117.294 2.81459 117.59 3.2146 117.972 3.87769C118.3 4.49392 118.574 5.17142 118.725 5.98226C118.894 6.90121 118.494 7.13184 118.383 7.14986C118.069 7.20031 117.738 7.58591 117.626 8.16251C117.547 8.67784 117.345 8.98776 117.247 9.39137C117.107 9.8022 117.031 10.4833 116.887 10.7284C116.678 11.15 116.653 11.7122 116.541 12.0077C116.365 12.4834 116.332 12.7104 116.184 13.2329C116.094 13.5248 115.943 13.8852 115.82 14.4041C115.723 14.8078 115.503 15.0132 115.456 15.5754C115.395 16.1988 115.143 16.3502 115.071 16.7502C115.01 17.0925 114.786 17.4096 114.674 17.8709C114.599 18.1052 114.382 18.6421 114.314 18.9304C114.217 19.334 114.368 19.9791 114.527 20.4007C114.75 20.9233 115.056 21.5395 115.276 22.3395C115.334 22.5522 115.528 22.9125 115.755 23.5972C115.849 24.0261 115.968 24.6207 116.08 25.0495C116.26 25.745 116.22 26.1955 116.08 26.7757C115.921 27.3523 115.867 27.5865 115.55 27.5865C115.55 27.5865 115.546 27.5865 115.543 27.5865C115.5 27.601 115.456 27.6082 115.417 27.6082C115.168 27.6082 115.01 27.3199 114.761 26.8766C114.473 26.3649 114.289 25.9505 114.044 25.4315C113.737 24.8117 113.456 24.3576 113.28 23.8279C113.103 23.2981 112.775 22.8513 112.541 22.3864C112.264 21.817 112.083 21.4026 111.73 21.071C111.518 20.8836 111.208 20.2638 110.959 19.8602C110.645 19.3521 110.325 19.071 110.13 18.7142C109.975 18.4619 109.532 18.1412 109.272 17.6835C109.013 17.2259 108.786 17.0925 108.389 16.7682C108.015 16.4402 107.521 16.5195 107.388 15.7051C107.326 15.3267 107.308 14.4942 107.597 14.278C107.665 14.2312 107.726 14.2095 107.788 14.2095C107.914 14.2095 108.051 14.2996 108.289 14.4474C108.548 14.6276 108.624 14.6708 108.944 14.9555C109.161 15.1429 109.417 15.3231 109.719 15.6114C110.018 15.8961 110.152 15.8745 110.429 16.1664C110.696 16.4006 110.898 16.6493 111.218 16.9304C111.593 17.2583 111.896 17.2655 112.123 17.6763C112.263 17.907 112.53 18.0727 112.746 18.0727C112.768 18.0727 112.786 18.0727 112.808 18.0691C113.078 18.0259 113.417 17.4133 113.568 16.779C113.723 16.3069 113.745 16.3033 113.788 15.8528C113.824 15.5141 114.083 14.9699 114.181 14.2852C114.217 13.9465 114.476 13.1248 114.519 12.6708C114.53 12.1662 114.75 11.5212 114.862 10.9446L115.164 9.11389C115.265 8.59495 115.334 8.30665 115.352 7.85979C115.377 7.29761 115.128 6.61651 114.876 6.48678C114.613 6.36785 114.462 6.0219 114.31 6.0219C114.307 6.0219 114.3 6.0219 114.296 6.0219C114.292 6.0219 114.285 6.0219 114.278 6.0219C114.166 6.0219 113.921 5.89577 113.766 5.89577C113.709 5.89577 113.665 5.91379 113.64 5.96063C113.424 6.32821 112.941 6.18407 112.656 6.28497C112.44 6.37506 112.076 6.54444 111.896 6.57327C111.716 6.6021 111.399 6.76426 111.161 6.85796C110.923 6.95166 110.613 7.16788 110.454 7.19311C110.17 7.29401 110.04 7.4814 109.734 7.58591C109.474 7.68321 109.337 7.98232 108.97 7.98592C108.966 7.98592 108.959 7.98592 108.955 7.98592C108.681 7.98592 108.418 8.29945 108.227 8.38594C108.036 8.47243 107.784 8.72829 107.489 8.72829C107.485 8.72829 107.481 8.72829 107.478 8.72829C107.471 8.72829 107.467 8.72829 107.46 8.72829C107.254 8.72829 107.063 9.07425 106.735 9.1283C106.498 9.222 106.173 9.49588 105.903 9.53913C105.68 9.57516 105.319 9.91031 105.081 10.004C104.811 10.0473 104.487 10.3211 104.26 10.4689C104.018 10.6743 103.647 10.959 103.456 11.0455C103.261 11.132 103.2 11.3086 102.988 11.568C102.897 11.6761 102.811 11.7122 102.724 11.7122C102.551 11.7122 102.393 11.55 102.256 11.4599C102.051 11.3266 101.827 11.0851 101.542 10.7392C101.395 10.541 101.132 10.1914 100.919 9.72652C100.706 9.26164 100.595 8.99857 100.461 8.74271C100.296 8.43639 100.087 8.13368 99.9316 7.60393C99.8415 7.34086 99.773 6.90481 99.7874 6.29218C99.8235 5.9282 99.9244 5.82009 100.043 5.82009C100.126 5.82009 100.22 5.87415 100.306 5.9318C100.544 6.11559 100.559 6.5048 100.814 6.51921C101.016 6.69579 101.33 7.30843 101.47 7.30843C101.478 7.30843 101.485 7.30842 101.492 7.30122C101.51 7.29041 101.532 7.2868 101.56 7.2868C101.679 7.2868 101.863 7.3805 102.054 7.3805C102.108 7.3805 102.162 7.37329 102.216 7.35527C102.418 7.27599 102.678 7.14626 102.941 7.14626C102.988 7.14626 103.034 7.14986 103.081 7.16067C103.15 7.17148 103.207 7.17509 103.261 7.17509C103.593 7.17509 103.571 6.96968 103.651 6.95526C103.712 6.92283 103.762 6.91202 103.813 6.91202C103.906 6.91202 103.986 6.95166 104.058 6.95166C104.13 6.95166 104.202 6.90841 104.285 6.73904C104.371 6.55885 104.681 6.62012 104.897 6.53002C105.128 6.38227 105.193 6.37146 105.51 6.32101C105.748 6.28137 105.91 6.05073 106.108 6.05073C106.116 6.05073 106.126 6.05073 106.134 6.05073C106.148 6.05073 106.166 6.05073 106.18 6.05073C106.364 6.05073 106.483 5.9318 106.721 5.84171C106.959 5.74802 107.081 5.78405 107.323 5.57864C107.355 5.54621 107.398 5.539 107.449 5.539C107.521 5.539 107.604 5.55702 107.683 5.55702C107.788 5.55702 107.885 5.52458 107.932 5.36963C107.986 5.13899 108.35 5.2471 108.512 5.11016C108.858 4.83267 109.236 4.60564 109.672 4.59122C109.806 4.5696 110.112 4.46509 110.253 4.33175C110.48 4.15157 110.638 4.06508 110.772 4.06508C110.793 4.06508 110.815 4.06508 110.833 4.07229C110.84 4.07229 110.851 4.07229 110.858 4.07229C111.009 4.07229 111.305 3.82723 111.413 3.80922C111.546 3.78759 111.723 3.59299 111.993 3.54975C112.444 3.47767 112.833 3.19298 113.154 3.02721C113.413 2.92991 114 3.00198 114.231 2.57674C114.336 2.39656 114.455 2.16232 114.721 2.16232C114.728 2.16232 114.732 2.16232 114.739 2.16232C114.851 2.1443 115.002 1.50644 115.128 1.43076C115.298 1.2722 115.496 1.20733 115.683 1.20733M115.694 0.133423C115.237 0.133423 114.801 0.299194 114.455 0.598302C114.217 0.789299 114.091 1.04156 113.99 1.28661C113.691 1.46319 113.503 1.72266 113.395 1.89564C113.363 1.89924 113.327 1.90645 113.298 1.91006C113.143 1.93168 112.97 1.9569 112.786 2.02537L112.728 2.047L112.674 2.07583C112.581 2.12268 112.48 2.18033 112.375 2.2416C112.188 2.34971 111.975 2.47224 111.835 2.49386C111.471 2.55152 111.208 2.71369 111.06 2.80378C110.905 2.85783 110.775 2.93351 110.667 3.00198C110.235 3.03802 109.885 3.26866 109.597 3.49569L109.579 3.51011C109.579 3.51011 109.543 3.52452 109.525 3.53173C108.887 3.58578 108.379 3.88489 108.015 4.15517C107.687 4.21644 107.453 4.33896 107.283 4.48671C107.006 4.52275 106.8 4.63807 106.66 4.75339C106.588 4.77141 106.476 4.80024 106.346 4.85429C106.224 4.90114 106.123 4.95159 106.047 4.98763C105.661 5.00925 105.388 5.18584 105.236 5.28674C104.962 5.33359 104.764 5.38404 104.497 5.53179C104.325 5.55341 103.968 5.60387 103.661 5.85252C103.521 5.87054 103.384 5.90658 103.251 5.96784C103.182 5.99667 103.114 6.02911 103.045 6.07595C103.016 6.07595 102.988 6.07595 102.959 6.07595C102.58 6.07595 102.256 6.19127 102.018 6.28497C102.015 6.28497 102.011 6.28497 102.007 6.28497C101.87 6.08676 101.726 5.88135 101.546 5.72279L101.431 5.62189C101.341 5.46693 101.207 5.26512 100.987 5.09574L100.951 5.06691L100.912 5.04169C100.706 4.90835 100.425 4.75699 100.061 4.75699C99.8631 4.75699 98.8649 4.82546 98.7315 6.20569V6.24533L98.7279 6.28497C98.7099 6.93724 98.7784 7.51384 98.9189 7.94989C99.0775 8.48324 99.2829 8.84361 99.4343 9.11028C99.4667 9.16794 99.4991 9.222 99.528 9.27966C99.6036 9.42741 99.6793 9.59679 99.7946 9.85265L99.9532 10.2058C100.205 10.7536 100.508 11.1644 100.67 11.3878L100.688 11.4131L100.706 11.4383L100.724 11.4635C101.074 11.8851 101.355 12.1879 101.683 12.4005C101.697 12.4113 101.712 12.4221 101.73 12.4365C101.914 12.5735 102.252 12.8293 102.742 12.8293C103.157 12.8293 103.542 12.6419 103.831 12.2996C103.932 12.1807 104 12.0797 104.051 12.0077C104.051 12.0041 104.058 12.0005 104.058 11.9969C104.371 11.8239 104.735 11.5356 104.923 11.377C104.97 11.3446 105.02 11.3086 105.074 11.2725C105.146 11.2221 105.265 11.1392 105.33 11.1031L105.384 11.0959L105.492 11.0527C105.708 10.9662 105.899 10.8365 106.065 10.7247C106.112 10.6923 106.173 10.6491 106.216 10.6238C106.534 10.5482 106.797 10.386 106.998 10.2635C107.035 10.2419 107.081 10.213 107.117 10.1914C107.42 10.1049 107.647 9.94274 107.795 9.82382C108.18 9.75175 108.472 9.55715 108.645 9.44543C108.667 9.43102 108.692 9.413 108.714 9.40219C108.883 9.3229 109.017 9.222 109.125 9.13911C109.139 9.1283 109.157 9.11389 109.175 9.09947C109.683 9.04181 110.011 8.77153 110.173 8.63459C110.181 8.62739 110.191 8.62018 110.199 8.61297C110.444 8.51567 110.62 8.39675 110.739 8.31386C110.764 8.29584 110.8 8.27062 110.822 8.25981C111.017 8.20215 111.193 8.10485 111.359 8.01475C111.427 7.97872 111.528 7.92106 111.572 7.90664C111.658 7.87421 111.752 7.83096 111.849 7.78772C111.928 7.75168 112.058 7.69402 112.119 7.676C112.368 7.62916 112.624 7.52465 112.959 7.3769L112.999 7.35888C113.02 7.35888 113.038 7.35888 113.06 7.35888C113.251 7.34807 113.597 7.32644 113.936 7.16067C114.008 7.23275 114.094 7.30482 114.195 7.37329C114.238 7.48501 114.289 7.68321 114.282 7.84898C114.267 8.1553 114.228 8.36071 114.152 8.7391L114.112 8.94451V8.95893L114.109 8.97334L113.806 10.786C113.773 10.9482 113.73 11.1248 113.683 11.3122C113.575 11.7446 113.464 12.1951 113.446 12.6347C113.424 12.8113 113.345 13.1284 113.283 13.3879C113.208 13.6942 113.143 13.9609 113.114 14.1807C113.071 14.4762 112.984 14.7501 112.905 15.0132C112.826 15.2726 112.746 15.5177 112.721 15.77C112.704 15.9501 112.67 16.1183 112.617 16.2745L112.548 16.4763L112.534 16.5195L112.527 16.5448C112.4 16.4475 112.278 16.3754 112.177 16.3141C112.08 16.2565 112.008 16.2132 111.939 16.1519C111.802 16.0294 111.687 15.9141 111.564 15.7916C111.445 15.6727 111.327 15.5465 111.182 15.4204C110.963 15.197 110.782 15.0852 110.649 15.0024C110.566 14.9519 110.534 14.9303 110.469 14.869C110.249 14.6564 110.047 14.4942 109.885 14.3645C109.806 14.2996 109.73 14.242 109.662 14.1807C109.352 13.9068 109.222 13.8167 109.002 13.6618L108.912 13.5969L108.887 13.5789L108.862 13.5645L108.826 13.5429C108.526 13.3591 108.22 13.1681 107.795 13.1681C107.507 13.1681 107.236 13.2582 106.984 13.4347L106.973 13.442L106.962 13.4492C106.108 14.0798 106.263 15.4961 106.332 15.9141C106.512 17.0277 107.215 17.3808 107.557 17.5502C107.607 17.5754 107.672 17.6079 107.69 17.6223L107.705 17.6331L107.716 17.6403C107.788 17.6979 107.853 17.7484 107.914 17.7988C108.17 18.0007 108.231 18.0511 108.343 18.2493C108.566 18.6457 108.854 18.9412 109.067 19.1574C109.121 19.2151 109.193 19.2872 109.226 19.3268C109.363 19.5611 109.517 19.7557 109.669 19.9431C109.802 20.1088 109.932 20.2674 110.051 20.4656C110.119 20.5737 110.191 20.7034 110.263 20.8296C110.552 21.3377 110.75 21.6692 111.009 21.9035C111.175 22.062 111.294 22.3035 111.51 22.7504L111.582 22.8981V22.9053L111.59 22.9125C111.683 23.0963 111.781 23.2657 111.878 23.4315C112.036 23.7017 112.184 23.9612 112.267 24.2063C112.418 24.6603 112.62 25.0459 112.836 25.4567C112.916 25.6081 112.999 25.7667 113.085 25.936L113.215 26.2099C113.402 26.6135 113.579 26.9919 113.835 27.4424L113.856 27.4784C114.152 28.001 114.559 28.7181 115.435 28.7181C115.528 28.7181 115.619 28.7073 115.712 28.6893C116.725 28.61 116.974 27.6911 117.129 27.1325L117.139 27.0892V27.0712L117.15 27.0532C117.32 26.3361 117.377 25.709 117.143 24.8045C117.056 24.4873 116.97 24.0621 116.891 23.6909L116.829 23.399L116.819 23.3414L116.801 23.2873C116.656 22.8441 116.523 22.5305 116.426 22.3035C116.39 22.2206 116.347 22.1125 116.336 22.0801C116.137 21.3629 115.882 20.7827 115.676 20.3142C115.633 20.2133 115.59 20.116 115.55 20.0223C115.42 19.6764 115.37 19.3124 115.388 19.1971C115.417 19.071 115.528 18.7682 115.601 18.57C115.651 18.4367 115.694 18.3178 115.719 18.2313L115.734 18.1881L115.745 18.1448C115.777 18.0043 115.835 17.8709 115.903 17.716C115.997 17.4997 116.101 17.2547 116.156 16.9592C116.156 16.952 116.192 16.8835 116.217 16.8294C116.328 16.6024 116.498 16.2637 116.552 15.7015C116.566 15.5249 116.602 15.4492 116.674 15.2799C116.743 15.1249 116.829 14.9303 116.891 14.6744C116.963 14.3645 117.049 14.1158 117.129 13.8924C117.168 13.7771 117.204 13.6726 117.237 13.5717V13.5573L117.247 13.5429C117.294 13.3699 117.334 13.2257 117.366 13.096C117.431 12.8437 117.474 12.6744 117.575 12.4041C117.651 12.2059 117.694 11.9861 117.734 11.777C117.77 11.586 117.813 11.3662 117.871 11.2401C118.022 10.959 118.094 10.6202 118.17 10.2599C118.21 10.0797 118.253 9.87427 118.293 9.75895L118.311 9.7085L118.321 9.65805C118.343 9.56075 118.386 9.44903 118.437 9.3193C118.53 9.07425 118.646 8.77153 118.711 8.37152C118.729 8.28503 118.754 8.22377 118.775 8.18413C119.064 8.08683 119.33 7.88502 119.521 7.61114C119.849 7.14626 119.947 6.53723 119.806 5.79847C119.648 4.9588 119.366 4.16959 118.941 3.38037L118.934 3.36596L118.927 3.35154C118.602 2.79297 118.339 2.41097 118.109 2.07222C118.051 1.98934 117.993 1.90645 117.939 1.82357L117.925 1.80555L117.911 1.78753C117.885 1.75149 117.856 1.71185 117.824 1.665C117.665 1.43797 117.428 1.09922 117.042 0.695603L117.028 0.681188L117.013 0.666773C116.674 0.338835 116.202 0.147838 115.712 0.147838L115.694 0.133423Z" fill="#351106"/>
<path d="M12.7181 92.5544C12.1991 92.5544 11.7451 92.2012 11.5901 91.6787C11.446 91.1922 11.5721 90.6949 11.9072 90.3777C13.1397 88.9903 13.392 86.9001 13.4424 83.3072V77.8188C12.7505 79.7071 11.7703 81.2495 10.5342 82.3667C7.71971 85.0695 4.33582 85.4803 2.5736 85.4803C1.90691 85.4803 1.38797 85.4262 1.06004 85.3794C0.595156 85.3253 0.202351 84.9902 0.0582023 84.5073C-0.0895501 84.01 0.0509948 83.5018 0.400555 83.1847C1.55735 81.9847 3.46372 78.781 3.46372 74.1934V71.3897C3.46372 64.3733 4.9016 57.4542 7.6188 51.3819L7.83863 50.8954C10.4045 45.1799 14.7001 35.612 21.14 35.612C25.5978 35.612 27.8933 37.1796 29.569 38.3256C30.5637 39.0067 31.1619 39.3923 31.8214 39.3923C33.0899 39.3923 33.6701 39.1689 34.4917 38.3653C34.7224 38.113 35.0323 37.9689 35.3674 37.9689C35.7458 37.9689 36.099 38.1563 36.3152 38.4698C36.5278 38.7797 36.5855 39.1761 36.4702 39.5437C34.6611 46.2646 30.4159 47.3529 26.3077 48.4016C22.6823 49.3314 19.2444 50.2107 16.9668 54.9496C17.0533 54.9424 17.1362 54.9352 17.2191 54.9244C18.0984 54.7658 19.0426 54.2505 20.1309 53.6522C21.8175 52.7297 23.9184 51.5837 26.6068 51.454H26.6572C27.2086 51.454 27.6807 51.8071 27.8393 52.3369C27.9726 52.791 27.8429 53.263 27.5149 53.5694C26.25 54.9964 25.9833 57.1839 25.9329 60.7011V82.4063C25.9653 83.3829 26.1563 85.9416 27.2483 87.8731L27.2879 87.9416L27.3167 88.0173C27.4717 88.4245 27.4284 88.8678 27.1978 89.2029C26.9852 89.5128 26.632 89.7002 26.2572 89.7002C26.1131 89.7002 25.9689 89.6714 25.832 89.6173C25.641 89.5597 25.4824 89.484 25.3635 89.43C25.3167 89.4083 25.2698 89.3831 25.2266 89.3687C24.4446 89.1128 23.7563 88.9903 23.1184 88.9903C22.8085 88.9903 22.5094 89.0191 22.1958 89.0768C21.3021 89.2137 20.3543 89.7363 19.2588 90.3381C17.5723 91.2678 15.4785 92.421 12.7721 92.5508H12.7469H12.7217L12.7181 92.5544Z" fill="#351106"/>
<path d="M12.6675 91.1489C14.2711 89.3867 14.4729 86.8425 14.5234 83.3217V61.2128C14.5234 60.82 14.4729 60.366 14.4225 59.9083C14.4225 59.7786 14.2711 59.7786 14.2711 59.9083C13.972 61.2777 13.5684 62.7769 13.5684 64.4742V70.0852C13.5684 74.8457 12.4152 79.217 9.80972 81.563C6.55196 84.6947 2.49057 84.4965 1.18602 84.3019C1.08512 84.3019 1.03466 84.0424 1.13557 83.9775C2.28876 82.8027 4.54468 79.4116 4.54468 74.1934V71.3897C4.54468 64.5427 5.95013 57.7569 8.60608 51.8252C11.0134 46.4772 15.2225 36.6931 21.1398 36.6931C27.8571 36.6931 29.1617 40.477 31.8176 40.477C33.3708 40.477 34.2249 40.1527 35.2772 39.1076C35.3781 38.9779 35.479 39.1076 35.4285 39.2374C32.1708 51.4324 20.4875 43.2159 15.5252 55.5442C15.4243 55.7388 15.5252 56.0019 15.727 56.0667C16.3288 56.0667 16.8802 56.0667 17.3811 56.0019C19.9866 55.5442 22.5453 52.7405 26.6571 52.5459C26.8085 52.5459 26.8589 52.7405 26.758 52.8054C25.1543 54.5676 24.9021 57.1082 24.8516 60.6975V82.4171C24.9021 83.9811 25.2012 86.4605 26.3039 88.4173C26.3544 88.547 26.3039 88.6804 26.203 88.6119C25.9508 88.547 25.7526 88.4173 25.5508 88.3524C24.1453 87.8948 23.0426 87.8299 21.9903 88.0245C19.4316 88.4137 16.8766 91.2859 12.7143 91.4805C12.6134 91.4805 12.563 91.221 12.6639 91.1525L12.6675 91.1489Z" fill="#351106"/>
<path d="M48.0057 92.6192C44.9966 92.6192 42.9172 91.3003 41.2451 90.2408C40.3694 89.6858 39.6126 89.2065 38.9639 89.0768C38.7585 89.0371 38.5495 89.0155 38.3333 89.0155C37.6666 89.0155 36.9314 89.2137 36.081 89.6246C35.9152 89.7146 35.7278 89.7651 35.5368 89.7651C35.1152 89.7651 34.726 89.5273 34.5206 89.1453C34.2971 88.7308 34.3223 88.2047 34.5854 87.8119C35.6233 86.2587 35.6233 83.5163 35.6233 82.345V82.3054C35.753 78.6729 36.5062 75.6493 37.8576 73.3213C40.5496 68.6185 44.5065 67.9158 46.6254 67.9158C46.9426 67.9158 47.2561 67.9302 47.5588 67.9626L47.7534 67.9842L47.93 68.0707C48.2651 68.2365 48.5174 68.5464 48.6147 68.9176C48.7156 69.2996 48.6507 69.7032 48.4345 70.0275C47.8687 70.8744 46.7912 73.8186 46.748 78.8927V82.4423C46.7696 82.7595 46.8813 82.9577 46.9462 83.0225H49.0688C49.1444 82.9397 49.2814 82.6874 49.2814 82.2766V65.4472C49.2778 65.5625 49.2742 65.667 49.267 65.7571C49.2489 66.4743 48.7264 67.0292 48.0561 67.0292C47.6453 67.0292 47.2705 66.8202 47.0255 66.4526C46.5822 65.786 45.0146 64.5138 42.2469 64.4562H39.4865C38.6901 64.4562 37.5116 64.813 36.5783 65.8076L36.5134 65.8761L36.4377 65.9337C36.2251 66.0923 35.9801 66.1752 35.7278 66.1752C35.1692 66.1752 34.5782 65.7427 34.5782 64.9391V64.8202L34.6034 64.7048C34.9926 62.957 35.0899 61.757 34.971 60.1245C34.8737 59.0182 34.5494 57.8722 34.1746 56.5424C33.6052 54.5243 32.9601 52.2396 32.8809 49.2485C32.8809 48.5205 33.425 47.9548 34.0953 47.9548C34.4881 47.9548 34.8521 48.153 35.0791 48.4881L35.1044 48.5278L35.126 48.5674C35.8647 49.9044 36.8197 50.1602 38.809 50.2251L39.6162 50.1602H39.6595C42.3226 50.1602 44.5785 51.3026 46.1822 53.4685C48.6327 56.6109 49.1913 61.0291 49.2778 63.7751V44.1817C49.2309 40.459 49.0147 38.4337 47.9012 37.0247L47.8723 36.9887L47.8471 36.9526C47.5696 36.5382 47.5408 35.994 47.7714 35.5652C47.9768 35.1832 48.366 34.9453 48.7913 34.9453H48.8489C51.2887 35.0787 53.1482 36.2571 54.6437 37.2013C55.5591 37.7815 56.3519 38.2824 57.051 38.4265C57.3105 38.4806 57.5555 38.5094 57.8006 38.5094C58.3159 38.5094 58.8673 38.3941 59.4835 38.1527L59.5231 38.1382L59.5628 38.1274C59.5952 38.1166 59.6925 38.0554 59.7646 38.0085C59.815 37.9761 59.8691 37.9436 59.9268 37.9076L60.1826 37.7526H60.4817C60.8565 37.7526 61.2097 37.9364 61.4295 38.2427C61.671 38.5779 61.7322 39.0248 61.5953 39.4392L61.5737 39.5004L61.5448 39.5581C60.6908 41.3636 60.388 43.7384 60.388 45.2268V75.4223C60.388 86.1866 55.7573 92.612 47.9985 92.612L48.0057 92.6192Z" fill="#351106"/>
<path d="M34.1745 49.0936C35.2196 50.9855 36.7404 51.245 38.8269 51.3099L39.6522 51.245C42.1315 51.245 44.0019 52.3549 45.3064 54.1135C48.3083 57.9623 48.2651 63.9625 48.1786 65.7247C48.1786 65.9193 48.0488 66.0491 47.9191 65.8545C47.2236 64.8094 45.2668 63.44 42.2649 63.3751H39.4828C38.5242 63.3751 37.0035 63.7679 35.7854 65.0725C35.6989 65.1373 35.6557 65.0725 35.6557 64.9427C36.0485 63.1805 36.1782 61.876 36.0485 60.0525C35.789 57.0542 34.0916 54.0523 33.9619 49.2269C33.9619 49.0972 34.0916 48.9674 34.1781 49.0972L34.1745 49.0936ZM49.1372 84.1037C49.7894 84.1037 50.3552 83.3217 50.3552 82.2766V44.1889C50.312 40.6032 50.139 38.1238 48.7444 36.3616C48.6579 36.2319 48.7011 36.0337 48.7876 36.0337C52.3985 36.2283 54.6148 39.0356 56.8347 39.4897C57.7465 39.6843 58.705 39.6194 59.8799 39.1617C60.0961 39.0969 60.2727 38.9671 60.4889 38.8374C60.5754 38.8374 60.6186 38.9671 60.5754 39.0969C59.6168 41.1185 59.3141 43.6628 59.3141 45.2268V75.4223C59.3141 85.6605 54.9644 91.5309 48.0056 91.5309C43.6992 91.5309 41.4396 88.4642 39.1765 88.0101C38.1747 87.8155 37.0467 87.9453 35.5656 88.6624C35.4791 88.7273 35.3926 88.5327 35.4791 88.3993C36.6539 86.6371 36.6971 83.8334 36.6971 82.3343C36.8269 78.6837 37.6089 75.8764 38.7837 73.8547C41.6991 68.7663 46.1785 68.8996 47.4398 69.0293C47.5696 69.0942 47.6128 69.2888 47.5263 69.4185C46.7443 70.5933 45.6992 73.8547 45.656 78.8747V82.4604C45.6992 83.3721 46.2218 84.0929 46.874 84.0929H49.1372V84.1037Z" fill="#351106"/>
<path d="M76.2333 92.5544H76.1937C73.7468 92.3778 71.9017 91.221 70.4206 90.2913C69.5052 89.7183 68.7124 89.221 68.0097 89.0768C67.8006 89.03 67.5844 89.0083 67.343 89.0083C66.5069 89.0083 65.6348 89.2642 65.1952 89.5237C65.0114 89.639 64.8024 89.7002 64.5861 89.7002C64.1609 89.7002 63.7645 89.4552 63.5519 89.066C63.3537 88.6984 63.3465 88.2732 63.523 87.9236C64.4708 85.9019 64.6402 83.3757 64.669 82.3775V44.1889C64.6258 40.5816 64.3915 38.4806 63.2491 37.0319L63.2239 36.9995L63.1987 36.9634C62.9284 36.5562 62.896 36.0193 63.123 35.5976C63.3356 35.2012 63.7393 34.9562 64.1825 34.9562H64.2402C66.633 35.0895 68.4817 36.2535 69.9665 37.1869C70.9034 37.7779 71.7143 38.286 72.4386 38.4338L72.4855 38.4446C72.6404 38.4842 72.8386 38.5058 73.0549 38.5058C73.7576 38.5058 74.6549 38.286 75.2459 37.9725C75.4225 37.868 75.6207 37.8139 75.8261 37.8139C76.255 37.8139 76.6514 38.059 76.8604 38.4518C77.055 38.8194 77.0622 39.241 76.8892 39.5869C76.0748 41.3492 75.7829 43.5871 75.7829 44.9745V54.6541C76.1973 54.6108 76.6225 54.5892 77.0514 54.5892C80.0605 54.5892 82.1218 55.9082 83.7831 56.9677C84.6516 57.5227 85.4012 58.0019 86.0499 58.1317C86.2301 58.1641 86.4211 58.1821 86.6229 58.1821C87.2787 58.1821 88.0427 57.9839 88.9509 57.5767C89.1166 57.4866 89.304 57.4398 89.495 57.4398C89.8662 57.4398 90.2158 57.6236 90.4356 57.9263C90.6698 58.2542 90.7347 58.683 90.6014 59.0759L90.5798 59.1407L90.5509 59.202C89.6392 61.1084 89.4338 63.5877 89.3941 64.8995C89.3112 68.3734 88.5617 71.397 87.167 73.8763C84.4318 78.59 80.4821 79.2927 78.3704 79.2927C78.0785 79.2927 77.7974 79.2783 77.5271 79.2531C77.1235 79.2242 76.7595 78.9864 76.5613 78.6152C76.3234 78.172 76.3487 77.599 76.6262 77.1845C77.1919 76.3377 78.2695 73.3934 78.3163 68.3194V64.7697C78.2947 64.431 78.1685 64.2039 78.0965 64.1247H75.9991C75.9198 64.2184 75.7829 64.4922 75.7829 64.9355V83.3289C75.8297 87.0515 76.046 89.0768 77.1595 90.4859L77.1883 90.5219L77.2136 90.5579C77.491 90.9724 77.5199 91.5165 77.2892 91.9454C77.0838 92.3274 76.6946 92.5652 76.2694 92.5652H76.2297L76.2333 92.5544ZM89.0518 46.052L88.9581 46.0376C86.8859 45.6772 85.1417 44.0123 83.9201 41.223C83.6894 40.6969 83.4768 40.1275 83.2894 39.5329C83.412 41.3275 83.7327 42.9817 84.3165 44.07L84.3345 44.106L84.3489 44.142C84.5471 44.5925 84.5147 45.0934 84.2588 45.4862C84.0282 45.8394 83.6426 46.052 83.2282 46.052H83.1345L83.0408 46.034C78.774 45.2808 76.5649 38.9959 76.3198 33.4714V33.4246C76.3198 32.7075 76.8568 32.1453 77.5487 32.1453C77.8947 32.1453 78.219 32.293 78.4496 32.5525C78.6911 32.7615 79.2316 32.9633 79.938 32.9633C80.6443 32.9633 81.2389 32.7687 81.556 32.4588L81.6065 32.4083L81.6642 32.3651C81.8696 32.2101 82.111 32.1309 82.3633 32.1309C82.5615 32.1309 82.7489 32.1813 82.9146 32.2678C83.0696 32.1885 83.2462 32.1453 83.4336 32.1453C83.7723 32.1453 84.0931 32.293 84.3237 32.5525C84.5688 32.7615 85.1057 32.9633 85.812 32.9633C86.5184 32.9633 87.113 32.7687 87.4301 32.4588L87.4806 32.4083L87.5382 32.3651C87.7436 32.2101 87.9851 32.1309 88.2409 32.1309C88.6229 32.1309 88.9869 32.3219 89.2175 32.639C89.4266 32.9273 89.4986 33.2913 89.4266 33.6336C88.904 37.14 88.9977 41.8357 90.1869 44.07L90.205 44.106L90.2194 44.142C90.4284 44.6105 90.3996 45.1187 90.1473 45.5079C89.9239 45.8502 89.5491 46.0556 89.1419 46.0556H89.0482L89.0518 46.052Z" fill="#351106"/>
<path d="M75.9239 63.0363C75.2283 63.0363 74.7058 63.8832 74.7058 64.9283V83.3217C74.749 86.9074 74.922 89.3867 76.3167 91.1489C76.4031 91.2787 76.3599 91.4769 76.2734 91.4769C72.6192 91.2174 70.4462 88.475 68.2263 88.0209C67.0947 87.7615 65.4875 88.0858 64.6154 88.6083C64.5289 88.6732 64.4424 88.4786 64.4857 88.4137C65.4442 86.392 65.7037 83.9127 65.747 82.4135V44.1925C65.7037 40.6068 65.4875 38.1274 64.0928 36.3652C64.0064 36.2355 64.0496 36.0373 64.1793 36.0373C67.747 36.2319 69.9633 39.0392 72.2264 39.4932C73.2715 39.7527 74.8355 39.4284 75.7941 38.9058C75.8806 38.841 75.9671 39.0356 75.9239 39.1004C75.0121 41.0573 74.7058 43.4718 74.7058 44.9709V55.4073C74.7058 55.6667 74.8355 55.8649 75.0085 55.8649C75.6608 55.7352 76.3563 55.6703 77.0518 55.6703C81.3583 55.6703 83.5745 58.7371 85.8377 59.1912C86.8828 59.3858 88.0107 59.1912 89.4486 58.5389C89.5351 58.474 89.6216 58.6038 89.5783 58.7335C88.5765 60.8201 88.3603 63.4291 88.317 64.8634C88.2306 68.514 87.4053 71.2564 86.2305 73.343C83.3151 78.3666 78.8789 78.2981 77.6176 78.1684C77.4879 78.1684 77.4446 77.9089 77.5311 77.7755C78.3131 76.6007 79.3582 73.3394 79.4014 68.3194V64.7301C79.3582 63.8183 78.8357 63.0363 78.1834 63.0363H75.9202H75.9239ZM77.6644 33.2985C78.6663 34.2751 81.1889 34.3435 82.3168 33.2336C82.4033 33.1687 82.4898 33.2985 82.4898 33.4282C81.924 36.8842 81.9673 41.9726 83.3583 44.5817C83.4448 44.7763 83.3583 44.9745 83.2286 44.9745C79.5312 44.3222 77.6176 38.322 77.4014 33.4318C77.4014 33.2372 77.5744 33.1723 77.6608 33.3021L77.6644 33.2985ZM83.5349 33.2985C84.5367 34.2751 87.0593 34.3435 88.1873 33.2336C88.2738 33.1687 88.4035 33.2985 88.3603 33.4282C87.8377 36.8842 87.8377 41.9726 89.2288 44.5817C89.3153 44.7763 89.272 44.9745 89.1423 44.9745C85.4016 44.3222 83.5313 38.322 83.3151 33.4318C83.3151 33.2372 83.4448 33.1723 83.5313 33.3021L83.5349 33.2985Z" fill="#351106"/>
<path d="M108.368 92.6193C105.359 92.6193 103.279 91.3003 101.607 90.2408C100.732 89.6858 99.9749 89.2065 99.3262 89.0768C99.1532 89.0444 98.973 89.0264 98.7784 89.0264C98.1226 89.0264 97.3514 89.2318 96.4216 89.6534C96.281 89.7255 96.0973 89.7687 95.9099 89.7687C95.5387 89.7687 95.1891 89.5885 94.9729 89.2894C94.7423 88.9687 94.6846 88.5363 94.8179 88.1326L94.836 88.075L94.8612 88.0209C95.6864 86.2191 95.9819 83.873 95.9819 82.2766V82.237C96.1117 78.6477 96.8649 75.6458 98.2162 73.3177C100.951 68.6149 104.887 67.9122 106.988 67.9122C107.294 67.9122 107.6 67.9266 107.892 67.9554C108.296 67.9843 108.66 68.2257 108.858 68.5933C109.096 69.0365 109.067 69.6095 108.793 70.024C108.227 70.8708 107.15 73.8151 107.107 78.8891V82.4388C107.128 82.7559 107.24 82.9541 107.305 83.019H109.427C109.503 82.9361 109.64 82.6838 109.64 82.273V48.3584C109.64 48.1782 109.608 48.0233 109.568 47.9043L94.6846 60.6831C94.4756 60.8885 94.1909 61.0074 93.8918 61.0074C93.2359 61.0074 92.7206 60.4633 92.7206 59.7714V59.6813L92.735 59.5912C93.4125 55.6019 93.5927 50.3332 93.1638 47.0647V47.0214C93.0017 45.2736 92.6413 43.8213 92.0935 42.7042L92.0611 42.6393L92.0395 42.5708C91.9097 42.178 91.971 41.7492 92.2052 41.4212C92.4251 41.1149 92.7782 40.9347 93.1458 40.9347C93.3368 40.9347 93.5206 40.9816 93.69 41.0717C94.4792 41.4248 95.2468 41.5942 96.0288 41.5942C96.2666 41.5942 96.5045 41.5798 96.7567 41.5474L96.8216 41.5402C98.2631 41.4465 99.2073 40.9131 100.404 40.2392C102.112 39.277 104.242 38.0806 108.372 38.0806H108.415C111.388 38.0806 113.438 39.3707 115.085 40.405C115.968 40.96 116.729 41.4393 117.381 41.551L117.424 41.5582L117.467 41.569C117.666 41.6194 117.867 41.6447 118.091 41.6447C118.685 41.6447 119.417 41.4537 120.318 41.0609C120.484 40.9744 120.664 40.9275 120.855 40.9275C121.28 40.9275 121.666 41.1618 121.871 41.5402C122.069 41.9077 122.058 42.351 121.853 42.7258C121.046 44.4556 120.757 46.762 120.757 48.3548V69.8113C120.603 84.3055 116.087 92.6121 108.368 92.6121V92.6193Z" fill="#351106"/>
<path d="M93.9279 59.9083C93.8846 59.9732 93.7981 59.9083 93.7981 59.7786C94.4936 55.6703 94.6666 50.2576 94.2342 46.9313C94.1044 45.497 93.7981 43.7348 93.0594 42.2357C93.0161 42.1059 93.1026 41.9762 93.1891 42.0411C94.6234 42.6934 95.8414 42.7582 96.8865 42.6285C100.887 42.369 101.715 39.1725 108.368 39.1725H108.411C112.718 39.1725 114.934 42.2393 117.197 42.6285C118.199 42.888 119.327 42.6934 120.808 42.0411C120.894 41.9762 120.981 42.1059 120.894 42.2357C119.936 44.2574 119.676 46.8665 119.676 48.3656V69.8221C119.547 82.1469 116.065 91.5417 108.368 91.5417C104.061 91.5417 101.802 88.475 99.5388 88.0209C98.537 87.8263 97.409 88.0209 95.9712 88.6732C95.8414 88.7381 95.7982 88.6083 95.8414 88.4786C96.8 86.392 97.0595 83.7829 97.0595 82.2838C97.1892 78.6981 97.9712 75.8908 99.146 73.8691C102.105 68.7807 106.541 68.914 107.802 69.0437C107.932 69.0437 107.975 69.3032 107.889 69.4329C107.107 70.6077 106.062 73.8691 106.018 78.8891V82.4748C106.062 83.3865 106.584 84.1073 107.236 84.1073H109.5C110.152 84.1073 110.718 83.3253 110.718 82.2802V48.3656C110.718 47.389 110.152 46.5385 109.5 46.5385L93.9314 59.9083H93.9279Z" fill="#351106"/>
<path d="M149.292 92.6193C141.418 92.6193 136.902 85.8082 136.902 73.9304V46.4773C135.875 47.9296 135.673 50.0594 135.673 53.3856V78.1684C135.673 86.3993 131.259 92.6049 125.41 92.6049C125.093 92.6049 124.768 92.5868 124.448 92.5472C124.051 92.5112 123.691 92.2769 123.496 91.9129C123.258 91.4697 123.284 90.8967 123.561 90.4823C124.188 89.484 125.208 86.1902 125.208 81.6892L125.251 54.4271C125.251 53.6487 125.168 50.9315 124.102 48.7764L124.069 48.7116L124.044 48.6431C123.914 48.2503 123.976 47.8215 124.21 47.4935C124.43 47.1872 124.783 47.007 125.15 47.007C125.331 47.007 125.507 47.0503 125.669 47.1295C125.77 47.1728 125.857 47.2196 125.932 47.2593C125.983 47.2845 126.051 47.3241 126.077 47.3313L126.145 47.353C126.794 47.5944 127.359 47.7133 127.871 47.7133C128.113 47.7133 128.34 47.6881 128.574 47.6341C129.273 47.4899 129.961 46.989 130.758 46.4124C132.059 45.4646 133.68 44.2862 136.102 44.1529H136.16C136.434 44.1529 136.697 44.2502 136.906 44.4268V43.6664C136.906 40.5996 136.679 38.423 135.544 37.0499L135.507 37.0067L135.475 36.9598C135.205 36.5526 135.172 36.0157 135.399 35.594C135.612 35.1976 136.016 34.9526 136.459 34.9526H136.52C138.913 35.0859 140.52 36.2607 141.814 37.2049C142.61 37.7887 143.302 38.2896 143.983 38.4302C144.243 38.4842 144.488 38.5131 144.737 38.5131C145.259 38.5131 145.825 38.3941 146.474 38.1527C146.502 38.1419 146.535 38.1202 146.571 38.1022C146.679 38.0446 146.823 37.9689 146.996 37.904C147.144 37.8392 147.302 37.8031 147.465 37.8031C147.883 37.8031 148.265 38.0338 148.463 38.4049C148.65 38.7509 148.65 39.1761 148.47 39.5221C147.623 41.3239 147.324 43.6844 147.324 45.1655V80.9721C147.324 81.4946 147.529 81.8333 147.634 81.9126H150.243C150.348 81.8333 150.553 81.4946 150.553 80.9721V71.2528C150.553 66.204 149.522 63.2346 148.978 62.3733C148.719 61.9841 148.69 61.4111 148.928 60.9678C149.122 60.6038 149.483 60.366 149.879 60.33C150.178 60.2939 150.488 60.2759 150.798 60.2759C152.441 60.2759 155.555 60.7876 157.973 64.2112C159.966 66.6941 160.975 70.5105 160.975 75.5593V82.3415C160.975 83.9199 161.278 86.2155 162.125 87.9272L162.157 87.9921L162.182 88.0642C162.316 88.4678 162.247 88.9291 161.998 89.2714C161.775 89.5813 161.433 89.7615 161.061 89.7615C160.867 89.7615 160.676 89.7111 160.506 89.6174C159.685 89.2138 158.96 89.0155 158.287 89.0155C158.063 89.0155 157.843 89.0372 157.616 89.0804C157.004 89.2029 156.355 89.6786 155.602 90.23C154.146 91.2931 152.333 92.6193 149.284 92.6193H149.292Z" fill="#351106"/>
<path d="M126.286 81.6892L126.329 54.4271C126.329 52.8631 126.069 50.3188 125.068 48.2971C125.024 48.1674 125.111 48.0377 125.197 48.1025C125.37 48.1674 125.547 48.2971 125.763 48.362C126.981 48.8197 127.936 48.8846 128.808 48.6899C131.028 48.2323 132.592 45.4286 136.16 45.234C136.246 45.234 136.333 45.4286 136.246 45.5619C134.812 47.3241 134.592 49.7999 134.592 53.3892V78.172C134.592 86.5866 129.983 92.1292 124.545 91.4769C124.415 91.4769 124.372 91.2174 124.459 91.0841C125.197 89.9093 126.286 86.4533 126.286 81.6928V81.6892ZM150.294 82.9937C151.032 82.9937 151.641 82.082 151.641 80.9721V71.2528C151.641 66.2328 150.64 62.9715 149.901 61.7967C149.814 61.6669 149.858 61.4075 149.987 61.4075C151.076 61.2777 154.51 61.148 157.119 64.8634C158.86 67.0149 159.901 70.5357 159.901 75.5593V82.3415C159.901 83.8406 160.161 86.3848 161.162 88.4065C161.206 88.5363 161.119 88.7345 161.033 88.6696C159.598 87.9525 158.467 87.8227 157.422 88.0173C155.159 88.475 153.638 91.5382 149.288 91.5382C141.983 91.5382 137.98 85.0803 137.98 73.9304V43.6664C137.98 40.3401 137.72 37.9941 136.369 36.3616C136.282 36.2319 136.326 36.0337 136.455 36.0337C139.98 36.2283 141.544 39.0356 143.76 39.4897C144.672 39.6843 145.63 39.6194 146.848 39.1617C147.021 39.0969 147.198 38.9671 147.414 38.9023C147.501 38.8374 147.544 38.9671 147.501 39.032C146.542 41.0537 146.239 43.5979 146.239 45.1619V80.9684C146.239 82.0784 146.848 82.9901 147.587 82.9901H150.283L150.294 82.9937Z" fill="#351106"/>
<path d="M176.255 92.5544C175.83 92.5544 175.441 92.3165 175.235 91.9345C175.005 91.5057 175.033 90.9615 175.311 90.5471L175.34 90.5039L175.372 90.4642C176.403 89.1921 176.659 87.3002 176.742 84.655V70.4708C176.742 70.305 176.723 70.1645 176.691 70.0384C176.623 70.1681 176.554 70.3807 176.554 70.6654V76.9935C176.554 80.172 175.758 82.918 174.251 84.9433L173.927 85.3794H173.869C171.098 88.7633 167.199 89.1381 165.606 89.1381C165.184 89.1381 164.853 89.1128 164.644 89.0948C164.175 89.0588 163.768 88.7417 163.613 88.2804C163.458 87.8119 163.574 87.293 163.894 86.9578C164.5 86.2118 165.393 83.8478 165.433 80.2441V72.3628C165.433 66.7229 169.635 61.9516 174.633 61.8904C172.795 61.3462 170.727 60.1786 169.098 57.7713C167.682 55.7208 166.914 53.0684 166.824 49.89V49.4683C166.806 48.7836 166.666 46.3007 165.725 44.2249C165.523 43.8501 165.52 43.4033 165.718 43.0285C165.93 42.6321 166.334 42.387 166.774 42.387H167.022L167.246 42.4951C168.06 42.8879 168.828 43.0645 169.739 43.0645C169.97 43.0645 170.19 43.0537 170.403 43.0393C172.147 42.8952 173.927 42.1276 175.65 41.3816C175.931 41.2591 176.208 41.1401 176.489 41.0212C176.295 39.8356 175.967 38.7617 175.556 37.9545L175.52 37.8824L175.495 37.8067C175.361 37.4103 175.426 36.9778 175.664 36.6463C175.88 36.3472 176.223 36.1706 176.579 36.1706H177.16L177.314 36.3904C177.343 36.4049 177.372 36.4193 177.397 36.4301C177.441 36.4517 177.48 36.4769 177.527 36.4913L177.596 36.513C178.244 36.7544 178.806 36.8733 179.322 36.8733C179.563 36.8733 179.79 36.8481 180.024 36.7941C180.745 36.6463 181.534 36.1454 182.453 35.5652C183.949 34.621 185.812 33.4426 188.248 33.3129H188.306C188.738 33.3129 189.138 33.5579 189.351 33.9579C189.585 34.394 189.56 34.9165 189.293 35.3201L189.268 35.3598L189.239 35.3958C188.201 36.6823 187.92 38.5851 187.834 41.2266C188.072 41.3275 188.309 41.432 188.551 41.5329C190.223 42.2537 191.801 42.9348 193.423 43.0321C193.639 43.0465 193.859 43.0573 194.09 43.0573C195.002 43.0573 195.769 42.8807 196.584 42.4879L196.807 42.3798H197.056C197.495 42.3798 197.903 42.6249 198.112 43.0213C198.31 43.3961 198.306 43.8429 198.104 44.2177C197.164 46.2899 197.027 48.726 197.005 49.4287V50.8305C197.005 55.2091 195.571 59.429 193.164 62.1174L192.839 62.4669C196.515 63.9373 199.135 67.9302 199.135 72.3555V80.2477C199.175 83.8802 200.086 86.219 200.703 86.9326C201.027 87.2605 201.139 87.765 200.98 88.2407C200.818 88.7308 200.407 89.0552 199.921 89.0876C199.708 89.1092 199.38 89.1309 198.962 89.1309C197.301 89.1309 193.138 88.72 190.356 84.9289C188.807 82.918 188.018 80.2369 188.018 76.9863V70.6582C188.018 70.4059 187.963 70.2077 187.902 70.078C187.888 70.1537 187.873 70.2762 187.873 70.4636V82.2694C187.873 83.7577 188.176 86.1326 189.03 87.938L189.059 87.9993L189.081 88.0606C189.218 88.475 189.156 88.9218 188.915 89.257C188.695 89.5633 188.342 89.7435 187.967 89.7435H187.668L187.412 89.5885C187.34 89.5453 187.272 89.502 187.203 89.4588C187.138 89.4156 187.048 89.3615 187.016 89.3471C186.374 89.1056 185.805 88.9867 185.286 88.9867C185.037 88.9867 184.792 89.0119 184.54 89.066C183.834 89.2101 183.041 89.7111 182.122 90.2913C180.626 91.2354 178.763 92.4138 176.323 92.5472H176.295H176.266L176.255 92.5544ZM177.34 62.33C177.657 62.4381 177.97 62.5642 178.28 62.712L178.547 62.8417C179.268 63.1985 180.165 63.6418 181.145 63.6418C182.216 63.6418 183.228 63.1012 184.234 61.984L184.302 61.9084L184.385 61.8435C185.315 60.7804 185.866 59.0867 185.866 57.2956V53.382C185.866 51.836 185.127 50.6792 184.468 50.6792L179.365 50.6143C178.698 50.6143 177.938 51.7711 177.938 53.3171C177.938 53.5117 177.938 53.6559 177.956 53.7351L177.974 53.8252V53.9153C178.151 57.4362 179.037 59.5227 179.509 60.1822C179.805 60.5209 179.906 61.0146 179.754 61.4687C179.599 61.93 179.192 62.2507 178.724 62.2832C178.406 62.3156 178.071 62.33 177.729 62.33C177.603 62.33 177.469 62.33 177.333 62.3228L177.34 62.33Z" fill="#351106"/>
<path d="M179.386 49.5368C177.995 49.5368 176.864 51.2342 176.864 53.3207C176.864 53.5802 176.864 53.7784 176.907 53.973C177.08 57.5587 177.995 59.9732 178.691 60.8849C178.777 60.9498 178.777 61.2129 178.648 61.2129C177.386 61.3426 172.907 61.4723 169.991 57.1695C168.773 55.4073 167.991 52.9964 167.905 49.8648V49.4756C167.862 47.9115 167.555 45.6268 166.687 43.7348C166.6 43.6051 166.687 43.4754 166.773 43.4754C168.251 44.1925 169.469 44.1925 170.471 44.1276C172.864 43.933 175.123 42.7582 177.343 41.8465C177.516 41.7816 177.646 41.4537 177.602 41.1942C177.429 39.9545 177.08 38.5851 176.514 37.4752C176.471 37.3454 176.557 37.2157 176.601 37.2806C176.817 37.3454 176.993 37.4752 177.21 37.54C178.428 37.9977 179.383 38.0626 180.255 37.8644C182.475 37.4067 184.691 34.603 188.302 34.4084C188.388 34.4084 188.475 34.603 188.388 34.7327C187.127 36.2968 186.824 38.4518 186.734 41.4501C186.734 41.7095 186.864 41.9726 187.084 42.1024C189.127 42.9492 191.17 43.9943 193.347 44.124C194.349 44.1889 195.563 44.1889 197.045 43.4718C197.131 43.4718 197.218 43.6015 197.131 43.7312C196.263 45.6232 195.956 47.9043 195.913 49.4035V50.8378C195.913 55.0109 194.565 58.9245 192.345 61.4039L191.127 62.7084C190.997 62.8381 191.041 63.1012 191.17 63.1012C194.998 63.8832 198.043 67.8617 198.043 72.3628V80.2549C198.086 84.1686 199.088 86.7776 199.913 87.6894C200 87.7543 199.956 88.0173 199.827 88.0173C198.565 88.1471 194.086 88.2119 191.214 84.2983C189.909 82.6045 189.084 80.19 189.084 76.9935V70.6654C189.084 69.6888 188.561 68.8383 187.866 68.8383C187.516 68.8383 187.17 69.0978 186.954 69.4906C186.824 69.7501 186.781 70.078 186.781 70.4672V82.273C186.781 83.837 187.084 86.3812 188.042 88.4029C188.086 88.5327 188.042 88.666 187.956 88.666C187.74 88.5363 187.563 88.4029 187.39 88.3381C186.172 87.8804 185.217 87.8155 184.302 88.0101C182.086 88.4678 179.866 91.2715 176.255 91.4661C176.168 91.4661 176.125 91.2715 176.211 91.1381C177.429 89.639 177.732 87.5524 177.819 84.6803V70.4636C177.819 70.1357 177.775 69.8113 177.646 69.487C177.429 69.0942 177.08 68.8347 176.691 68.8347C175.995 68.8347 175.473 69.6816 175.473 70.6618V76.9899C175.473 80.1864 174.647 82.6009 173.386 84.2947H173.343C170.471 88.2083 165.991 88.1435 164.73 88.0137C164.6 88.0137 164.6 87.7543 164.687 87.6858C165.469 86.774 166.471 84.165 166.514 80.2513V72.3592C166.514 66.2292 172.168 61.0111 177.822 63.685C179.3 64.4022 182.042 66.0346 185.041 62.7084L185.127 62.6435C186.259 61.4039 186.954 59.4471 186.954 57.2956V53.382C186.954 51.2954 185.866 49.5981 184.475 49.5981L179.386 49.5332V49.5368Z" fill="#351106"/>
<path d="M205.196 92.5255C204.905 92.5255 204.616 92.5111 204.346 92.4859C203.942 92.4571 203.578 92.2192 203.38 91.8517C203.142 91.412 203.168 90.8354 203.441 90.421L203.477 90.3705C204.144 89.4768 205.132 86.3956 205.132 81.5594C205.132 79.4368 205.845 77.426 207.042 76.1791L220.029 61.9804C221.651 60.2434 222.617 57.3497 222.617 54.2324V48.7548C222.617 47.2088 221.856 46.052 221.175 46.052H216.13C215.449 46.052 214.689 47.2088 214.689 48.7548C214.768 53.1045 215.64 55.8469 216.361 56.8704C216.653 57.3028 216.681 57.8794 216.444 58.3227C216.245 58.6938 215.881 58.9317 215.478 58.9605C215.186 58.9893 214.88 59.0038 214.573 59.0038C212.454 59.0038 208.497 58.301 205.798 53.591C204.53 51.4684 203.791 48.6647 203.611 45.2844C203.564 43.6303 203.326 41.3239 202.461 39.5761L202.429 39.5076L202.404 39.4356C202.274 39.0428 202.335 38.6139 202.573 38.286C202.793 37.9797 203.146 37.7995 203.514 37.7995C203.705 37.7995 203.888 37.8463 204.058 37.9364C204.847 38.2896 205.607 38.459 206.378 38.459C206.609 38.459 206.836 38.4446 207.078 38.4121H207.114L207.15 38.4049C208.941 38.2896 210.75 37.4896 212.505 36.7184C214.48 35.8463 216.523 34.9453 218.66 34.9453C220.797 34.9453 222.837 35.8463 224.815 36.7184C226.567 37.4896 228.379 38.2896 230.167 38.4049H230.203L230.239 38.4121C230.477 38.4446 230.704 38.459 230.938 38.459C231.713 38.459 232.487 38.286 233.309 37.9292C233.475 37.8427 233.655 37.7959 233.842 37.7959C234.268 37.7959 234.657 38.0301 234.859 38.4085C235.053 38.7725 235.046 39.2157 234.844 39.5869C234.033 41.3744 233.745 43.5222 233.745 44.8303V49.7855C233.745 54.1856 232.289 58.4092 229.853 61.0795L225.496 65.822C228.282 66.6436 232.657 69.1699 232.657 76.9178V81.5486C232.657 86.3848 233.648 89.466 234.311 90.3597L234.343 90.4066C234.617 90.821 234.642 91.394 234.408 91.8372C234.21 92.2048 233.846 92.4427 233.442 92.4751C233.172 92.5003 232.891 92.5147 232.596 92.5147C230.469 92.5147 226.494 91.812 223.766 87.1128C222.264 84.4676 221.532 81.1342 221.532 76.9178C221.532 74.2331 220.011 72.406 219.492 72.388C219.492 72.3916 216.927 75.1736 216.927 75.1736C216.512 75.6205 216.256 76.4097 216.256 77.2458C216.256 81.2495 215.514 84.4965 213.982 87.174C211.247 91.8228 207.305 92.5183 205.196 92.5183V92.5255Z" fill="#351106"/>
<path d="M216.133 44.9709C214.742 44.9709 213.611 46.6682 213.611 48.7548C213.697 53.5153 214.699 56.3838 215.481 57.4938C215.568 57.6235 215.524 57.8866 215.395 57.8866C214.133 58.0163 209.654 58.1461 206.738 53.0612C205.607 51.1693 204.868 48.5602 204.695 45.2339C204.652 43.7348 204.436 41.1257 203.434 39.104C203.391 38.9743 203.477 38.8446 203.564 38.9094C204.998 39.5617 206.216 39.6266 207.218 39.4968C211.261 39.2374 214.915 36.0409 218.656 36.0409C222.397 36.0409 226.051 39.2374 230.094 39.4968C231.096 39.6266 232.314 39.5617 233.792 38.9094C233.878 38.8446 233.965 38.9743 233.878 39.104C233.01 40.996 232.66 43.2771 232.66 44.8447V49.7999C232.66 53.973 231.312 57.8866 229.049 60.366L223.658 66.2364C223.528 66.3661 223.615 66.5607 223.701 66.5607C228.008 67.0833 231.572 70.2798 231.572 76.9322V81.563C231.572 86.6515 232.617 89.9128 233.442 91.0192C233.529 91.1489 233.485 91.412 233.356 91.412C232.094 91.5417 227.615 91.6066 224.699 86.5866C223.438 84.3703 222.613 81.3684 222.613 76.9322C222.613 73.2168 220.004 70.2149 218.656 71.7141L216.133 74.4529C215.524 75.1052 215.175 76.1502 215.175 77.2566C215.175 81.3648 214.35 84.3667 213.045 86.6479C210.13 91.603 205.697 91.5381 204.436 91.4084C204.306 91.4084 204.263 91.1489 204.349 91.0156C205.174 89.9056 206.22 86.583 206.22 81.5594C206.22 79.7323 206.829 77.9701 207.827 76.9286L220.829 62.712C222.656 60.7552 223.701 57.6235 223.701 54.2324V48.7548C223.701 46.6682 222.57 44.9709 221.179 44.9709H216.133Z" fill="#351106"/>
<path d="M12.6675 90.5327C14.2711 88.7705 14.4729 86.2263 14.5234 82.7054V60.5966C14.5234 60.2038 14.4729 59.7498 14.4225 59.2921C14.4225 59.1624 14.2711 59.1624 14.2711 59.2921C13.972 60.6615 13.5684 62.1606 13.5684 63.858V69.469C13.5684 74.2295 12.4152 78.6008 9.80972 80.9468C6.55196 84.0785 2.49057 83.8803 1.18602 83.6857C1.08512 83.6857 1.03466 83.4262 1.13557 83.3613C2.28876 82.1865 4.54468 78.7954 4.54468 73.5772V70.7735C4.54468 63.9265 5.95013 57.1407 8.60608 51.2089C11.0134 45.861 15.2225 36.0769 21.1398 36.0769C27.8571 36.0769 29.1617 39.8608 31.8176 39.8608C33.3708 39.8608 34.2249 39.5365 35.2772 38.4914C35.3781 38.3617 35.479 38.4914 35.4285 38.6212C32.1708 50.8161 20.4875 42.5997 15.5252 54.928C15.4243 55.1226 15.5252 55.3857 15.727 55.4505C16.3288 55.4505 16.8802 55.4505 17.3811 55.3857C19.9866 54.928 22.5453 52.1243 26.6571 51.9297C26.8085 51.9297 26.8589 52.1243 26.758 52.1892C25.1543 53.9514 24.9021 56.492 24.8516 60.0813V81.8009C24.9021 83.3649 25.2012 85.8443 26.3039 87.8011C26.3544 87.9308 26.3039 88.0642 26.203 87.9957C25.9508 87.9308 25.7526 87.8011 25.5508 87.7362C24.1453 87.2786 23.0426 87.2137 21.9903 87.4083C19.4316 87.7975 16.8766 90.6697 12.7143 90.8643C12.6134 90.8643 12.563 90.6048 12.6639 90.5363L12.6675 90.5327Z" fill="white"/>
<path d="M34.1745 48.4809C35.2196 50.3729 36.7404 50.6323 38.8269 50.6972L39.6522 50.6323C42.1315 50.6323 44.0019 51.7423 45.3064 53.5009C48.3083 57.3497 48.2651 63.3499 48.1786 65.1121C48.1786 65.3067 48.0488 65.4364 47.9191 65.2418C47.2236 64.1967 45.2668 62.8273 42.2649 62.7625H39.4828C38.5242 62.7625 37.0035 63.1553 35.7854 64.4598C35.6989 64.5247 35.6557 64.4598 35.6557 64.3301C36.0485 62.5679 36.1782 61.2633 36.0485 59.4398C35.789 56.4415 34.0916 53.4396 33.9619 48.6143C33.9619 48.4845 34.0916 48.3548 34.1781 48.4845L34.1745 48.4809ZM49.1372 83.4874C49.7894 83.4874 50.3552 82.7054 50.3552 81.6604V43.5727C50.312 39.987 50.139 37.5076 48.7444 35.7454C48.6579 35.6157 48.7011 35.4174 48.7876 35.4174C52.3985 35.6121 54.6148 38.4193 56.8347 38.8734C57.7465 39.068 58.705 39.0031 59.8799 38.5455C60.0961 38.4806 60.2727 38.3509 60.4889 38.2211C60.5754 38.2211 60.6186 38.3509 60.5754 38.4806C59.6168 40.5023 59.3141 43.0465 59.3141 44.6105V74.8061C59.3141 85.0443 54.9644 90.9147 48.0056 90.9147C43.6992 90.9147 41.4396 87.8479 39.1765 87.3939C38.1747 87.1993 37.0467 87.329 35.5656 88.0462C35.4791 88.111 35.3926 87.9164 35.4791 87.7831C36.6539 86.0209 36.6971 83.2172 36.6971 81.718C36.8269 78.0675 37.6089 75.2602 38.7837 73.2385C41.6991 68.15 46.1785 68.2834 47.4398 68.4131C47.5696 68.478 47.6128 68.6726 47.5263 68.8023C46.7443 69.9771 45.6992 73.2385 45.656 78.2584V81.8442C45.6992 82.7559 46.2218 83.4766 46.874 83.4766H49.1372V83.4874Z" fill="white"/>
<path d="M75.9239 62.4237C75.2283 62.4237 74.7058 63.2706 74.7058 64.3157V82.709C74.749 86.2947 74.922 88.7741 76.3167 90.5363C76.4031 90.666 76.3599 90.8642 76.2734 90.8642C72.6192 90.6048 70.4462 87.8623 68.2263 87.4083C67.0947 87.1488 65.4875 87.4731 64.6154 87.9957C64.5289 88.0605 64.4424 87.866 64.4857 87.8011C65.4442 85.7794 65.7037 83.3 65.747 81.8009V43.5799C65.7037 39.9942 65.4875 37.5148 64.0928 35.7526C64.0064 35.6229 64.0496 35.4246 64.1793 35.4246C67.747 35.6192 69.9633 38.4265 72.2264 38.8806C73.2715 39.1401 74.8355 38.8157 75.7941 38.2932C75.8806 38.2283 75.9671 38.4229 75.9239 38.4878C75.0121 40.4446 74.7058 42.8591 74.7058 44.3583V54.7946C74.7058 55.0541 74.8355 55.2523 75.0085 55.2523C75.6608 55.1226 76.3563 55.0577 77.0518 55.0577C81.3583 55.0577 83.5745 58.1245 85.8377 58.5785C86.8828 58.7731 88.0107 58.5785 89.4486 57.9263C89.5351 57.8614 89.6216 57.9911 89.5783 58.1209C88.5765 60.2074 88.3603 62.8165 88.317 64.2508C88.2306 67.9013 87.4053 70.6438 86.2305 72.7303C83.3151 77.7539 78.8789 77.6854 77.6176 77.5557C77.4879 77.5557 77.4446 77.2962 77.5311 77.1629C78.3131 75.9881 79.3582 72.7267 79.4014 67.7068V64.1174C79.3582 63.2057 78.8357 62.4237 78.1834 62.4237H75.9202H75.9239ZM77.6644 32.6822C78.6663 33.6588 81.1889 33.7273 82.3168 32.6174C82.4033 32.5525 82.4898 32.6822 82.4898 32.812C81.924 36.2679 81.9673 41.3564 83.3583 43.9655C83.4448 44.1601 83.3583 44.3583 83.2286 44.3583C79.5312 43.706 77.6176 37.7058 77.4014 32.8156C77.4014 32.621 77.5744 32.5561 77.6608 32.6858L77.6644 32.6822ZM83.5349 32.6822C84.5367 33.6588 87.0593 33.7273 88.1873 32.6174C88.2738 32.5525 88.4035 32.6822 88.3603 32.812C87.8377 36.2679 87.8377 41.3564 89.2288 43.9655C89.3153 44.1601 89.272 44.3583 89.1423 44.3583C85.4016 43.706 83.5313 37.7058 83.3151 32.8156C83.3151 32.621 83.4448 32.5561 83.5313 32.6858L83.5349 32.6822Z" fill="white"/>
<path d="M93.9279 59.2921C93.8846 59.3569 93.7981 59.2921 93.7981 59.1623C94.4936 55.0541 94.6666 49.6413 94.2342 46.3151C94.1044 44.8808 93.7981 43.1186 93.0594 41.6194C93.0161 41.4897 93.1026 41.36 93.1891 41.4248C94.6234 42.0771 95.8414 42.142 96.8865 42.0122C100.887 41.7528 101.715 38.5563 108.368 38.5563H108.411C112.718 38.5563 114.934 41.623 117.197 42.0122C118.199 42.2717 119.327 42.0771 120.808 41.4248C120.894 41.36 120.981 41.4897 120.894 41.6194C119.936 43.6411 119.676 46.2502 119.676 47.7494V69.2059C119.547 81.5306 116.065 90.9255 108.368 90.9255C104.061 90.9255 101.802 87.8587 99.5388 87.4047C98.537 87.2101 97.409 87.4047 95.9712 88.0569C95.8414 88.1218 95.7982 87.9921 95.8414 87.8623C96.8 85.7758 97.0595 83.1667 97.0595 81.6676C97.1892 78.0819 97.9712 75.2746 99.146 73.2529C102.105 68.1644 106.541 68.2978 107.802 68.4275C107.932 68.4275 107.975 68.687 107.889 68.8167C107.107 69.9915 106.062 73.2529 106.018 78.2729V81.8585C106.062 82.7703 106.584 83.491 107.236 83.491H109.5C110.152 83.491 110.718 82.709 110.718 81.6639V47.7494C110.718 46.7728 110.152 45.9223 109.5 45.9223L93.9314 59.2921H93.9279Z" fill="white"/>
<path d="M126.286 81.0766L126.329 53.8144C126.329 52.2504 126.069 49.7062 125.068 47.6845C125.024 47.5548 125.111 47.425 125.197 47.4899C125.37 47.5548 125.547 47.6845 125.763 47.7494C126.981 48.207 127.936 48.2719 128.808 48.0773C131.028 47.6196 132.592 44.8159 136.16 44.6213C136.246 44.6213 136.333 44.8159 136.246 44.9493C134.812 46.7115 134.592 49.1873 134.592 52.7766V77.5593C134.592 85.974 129.983 91.5165 124.545 90.8643C124.415 90.8643 124.372 90.6048 124.459 90.4715C125.197 89.2966 126.286 85.8407 126.286 81.0802V81.0766ZM150.294 82.3811C151.032 82.3811 151.641 81.4694 151.641 80.3594V70.6402C151.641 65.6202 150.64 62.3588 149.901 61.184C149.814 61.0543 149.858 60.7948 149.987 60.7948C151.076 60.6651 154.51 60.5354 157.119 64.2508C158.86 66.4022 159.901 69.923 159.901 74.9466V81.7288C159.901 83.228 160.161 85.7722 161.162 87.7939C161.206 87.9236 161.119 88.1218 161.033 88.057C159.598 87.3398 158.467 87.2101 157.422 87.4047C155.159 87.8624 153.638 90.9255 149.288 90.9255C141.983 90.9255 137.98 84.4677 137.98 73.3177V43.0537C137.98 39.7275 137.72 37.3815 136.369 35.749C136.282 35.6193 136.326 35.4211 136.455 35.4211C139.98 35.6157 141.544 38.4229 143.76 38.877C144.672 39.0716 145.63 39.0068 146.848 38.5491C147.021 38.4842 147.198 38.3545 147.414 38.2896C147.501 38.2247 147.544 38.3545 147.501 38.4193C146.542 40.441 146.239 42.9853 146.239 44.5493V80.3558C146.239 81.4658 146.848 82.3775 147.587 82.3775H150.283L150.294 82.3811Z" fill="white"/>
<path d="M179.386 48.9206C177.995 48.9206 176.864 50.6179 176.864 52.7045C176.864 52.9639 176.864 53.1621 176.907 53.3567C177.08 56.9424 177.995 59.3569 178.691 60.2687C178.777 60.3335 178.777 60.5966 178.648 60.5966C177.386 60.7263 172.907 60.8561 169.991 56.5532C168.773 54.791 167.991 52.3801 167.905 49.2485V48.8593C167.862 47.2953 167.555 45.0105 166.687 43.1186C166.6 42.9888 166.687 42.8591 166.773 42.8591C168.251 43.5762 169.469 43.5762 170.471 43.5114C172.864 43.3168 175.123 42.142 177.343 41.2302C177.516 41.1654 177.646 40.8374 177.602 40.5779C177.429 39.3383 177.08 37.9689 176.514 36.8589C176.471 36.7292 176.557 36.5994 176.601 36.6643C176.817 36.7292 176.993 36.8589 177.21 36.9238C178.428 37.3814 179.383 37.4463 180.255 37.2481C182.475 36.7904 184.691 33.9867 188.302 33.7921C188.388 33.7921 188.475 33.9867 188.388 34.1165C187.127 35.6805 186.824 37.8355 186.734 40.8338C186.734 41.0933 186.864 41.3564 187.084 41.4861C189.127 42.333 191.17 43.378 193.347 43.5078C194.349 43.5726 195.563 43.5726 197.045 42.8555C197.131 42.8555 197.218 42.9852 197.131 43.115C196.263 45.0069 195.956 47.2881 195.913 48.7872V50.2215C195.913 54.3946 194.565 58.3082 192.345 60.7876L191.127 62.0921C190.997 62.2219 191.041 62.4849 191.17 62.4849C194.998 63.267 198.043 67.2455 198.043 71.7465V79.6386C198.086 83.5523 199.088 86.1614 199.913 87.0731C200 87.138 199.956 87.4011 199.827 87.4011C198.565 87.5308 194.086 87.5956 191.214 83.682C189.909 81.9883 189.084 79.5738 189.084 76.3773V70.0492C189.084 69.0725 188.561 68.2221 187.866 68.2221C187.516 68.2221 187.17 68.4815 186.954 68.8743C186.824 69.1338 186.781 69.4617 186.781 69.8509V81.6567C186.781 83.2207 187.084 85.765 188.042 87.7867C188.086 87.9164 188.042 88.0497 187.956 88.0497C187.74 87.92 187.563 87.7866 187.39 87.7218C186.172 87.2641 185.217 87.1992 184.302 87.3938C182.086 87.8515 179.866 90.6552 176.255 90.8498C176.168 90.8498 176.125 90.6552 176.211 90.5219C177.429 89.0227 177.732 86.9362 177.819 84.064V69.8473C177.819 69.5194 177.775 69.1951 177.646 68.8707C177.429 68.4779 177.08 68.2185 176.691 68.2185C175.995 68.2185 175.473 69.0653 175.473 70.0455V76.3737C175.473 79.5702 174.647 81.9847 173.386 83.6784H173.343C170.471 87.592 165.991 87.5272 164.73 87.3974C164.6 87.3974 164.6 87.138 164.687 87.0695C165.469 86.1578 166.471 83.5487 166.514 79.635V71.7429C166.514 65.613 172.168 60.3948 177.822 63.0687C179.3 63.7859 182.042 65.4184 185.041 62.0921L185.127 62.0273C186.259 60.7876 186.954 58.8308 186.954 56.6794V52.7657C186.954 50.6792 185.866 48.9818 184.475 48.9818L179.386 48.917V48.9206Z" fill="white"/>
<path d="M216.133 44.3583C214.742 44.3583 213.611 46.0556 213.611 48.1422C213.697 52.9027 214.699 55.7712 215.481 56.8812C215.568 57.0109 215.524 57.274 215.395 57.274C214.133 57.4037 209.654 57.5335 206.738 52.4486C205.607 50.5567 204.868 47.9476 204.695 44.6213C204.652 43.1222 204.436 40.5131 203.434 38.4914C203.391 38.3617 203.477 38.2319 203.564 38.2968C204.998 38.9491 206.216 39.014 207.218 38.8842C211.261 38.6248 214.915 35.4283 218.656 35.4283C222.397 35.4283 226.051 38.6248 230.094 38.8842C231.096 39.014 232.314 38.9491 233.792 38.2968C233.878 38.2319 233.965 38.3617 233.878 38.4914C233.01 40.3834 232.66 42.6645 232.66 44.2321V49.1873C232.66 53.3604 231.312 57.274 229.049 59.7533L223.658 65.6238C223.528 65.7535 223.615 65.9481 223.701 65.9481C228.008 66.4707 231.572 69.6672 231.572 76.3196V80.9504C231.572 86.0389 232.617 89.3002 233.442 90.4066C233.529 90.5363 233.485 90.7994 233.356 90.7994C232.094 90.9291 227.615 90.994 224.699 85.974C223.438 83.7577 222.613 80.7558 222.613 76.3196C222.613 72.6042 220.004 69.6023 218.656 71.1015L216.133 73.8403C215.524 74.4926 215.175 75.5376 215.175 76.644C215.175 80.7522 214.35 83.7541 213.045 86.0353C210.13 90.9904 205.697 90.9255 204.436 90.7958C204.306 90.7958 204.263 90.5363 204.349 90.403C205.174 89.293 206.22 85.9704 206.22 80.9468C206.22 79.1197 206.829 77.3575 207.827 76.316L220.829 62.0994C222.656 60.1426 223.701 57.0109 223.701 53.6198V48.1422C223.701 46.0556 222.57 44.3583 221.179 44.3583H216.133Z" fill="white"/>
</svg>
