<svg width="42" height="42" viewBox="0 0 42 42" fill="none" xmlns="http://www.w3.org/2000/svg">
<rect width="42" height="42" rx="21" fill="white"/>
<path d="M21 32C18.91 32 17.0033 31.4775 15.28 30.4325C13.5567 29.3875 12.2183 27.985 11.265 26.225C11.0083 25.785 10.9625 25.3175 11.1275 24.8225C11.2925 24.3275 11.6133 23.9883 12.09 23.805C12.4933 23.6217 12.8967 23.6217 13.3 23.805C13.7033 23.9883 14.015 24.2817 14.235 24.685C14.895 25.895 15.83 26.8667 17.04 27.6C18.25 28.3333 19.57 28.7 21 28.7C23.1267 28.7 24.9417 27.9483 26.445 26.445C27.9483 24.9417 28.7 23.1267 28.7 21C28.7 18.8733 27.9483 17.0583 26.445 15.555C24.9417 14.0517 23.1267 13.3 21 13.3C19.9733 13.3 19.0017 13.4833 18.085 13.85C17.1683 14.2167 16.3433 14.7667 15.61 15.5H17.15C17.6267 15.5 18.0208 15.6558 18.3325 15.9675C18.6442 16.2792 18.8 16.6733 18.8 17.15C18.8 17.6267 18.6442 18.0208 18.3325 18.3325C18.0208 18.6442 17.6267 18.8 17.15 18.8H12.2C11.5767 18.8 11.0542 18.5892 10.6325 18.1675C10.2108 17.7458 10 17.2233 10 16.6V11.65C10 11.1733 10.1558 10.7792 10.4675 10.4675C10.7792 10.1558 11.1733 10 11.65 10C12.1267 10 12.5208 10.1558 12.8325 10.4675C13.1442 10.7792 13.3 11.1733 13.3 11.65V13.135C14.3633 12.145 15.555 11.375 16.875 10.825C18.195 10.275 19.57 10 21 10C24.0433 10 26.6375 11.0725 28.7825 13.2175C30.9275 15.3625 32 17.9567 32 21C32 24.0433 30.9275 26.6375 28.7825 28.7825C26.6375 30.9275 24.0433 32 21 32Z" fill="#333437"/>
</svg>
