<svg width="324" height="24" viewBox="0 0 324 24" fill="none" xmlns="http://www.w3.org/2000/svg">
<path d="M0 12H65.5" stroke="white"/>
<path d="M77.772 15.808L77.788 15.776L73.5 5.344L75.724 5.808L78.668 13.168L81.292 5.344L83.692 5.808L86.636 13.168L89.26 5.344L91.66 5.808L88.108 16.464L85.74 15.808L85.756 15.776L82.764 8.56L80.14 16.464L77.772 15.808ZM94.2424 5.088V9.536C95.2344 8.58667 96.093 8.13867 96.8184 8.192C97.1597 8.21333 97.757 8.64 98.6104 9.472C99.4744 10.2933 99.933 10.8533 99.9864 11.152C100.029 11.4293 100.05 13.2 100.05 16.464L98.0664 16.016C98.1304 12.3573 98.1037 10.4213 97.9864 10.208C97.7837 9.83467 97.453 9.728 96.9944 9.888C96.5464 10.0373 96.077 10.3147 95.5864 10.72C95.1064 11.1147 94.6584 11.5627 94.2424 12.064V16.464L92.2424 16.016V4.64L94.2424 5.088ZM102.477 10.384L101.613 8.928C102.36 8.736 103.187 8.55467 104.093 8.384C105.011 8.21333 105.587 8.13333 105.821 8.144C106.056 8.15467 106.525 8.50667 107.229 9.2C107.933 9.88267 108.408 10.4053 108.653 10.768C108.739 10.896 108.781 11.328 108.781 12.064C108.781 12.7893 108.765 13.6213 108.733 14.56C108.712 15.4987 108.707 16.1333 108.717 16.464L106.733 16L106.749 15.184C105.885 16.048 105.181 16.48 104.637 16.48C104.125 16.4693 103.475 15.984 102.685 15.024C101.896 14.064 101.501 13.376 101.501 12.96C101.501 12.6293 101.725 12.3253 102.173 12.048C102.621 11.7707 103.165 11.5573 103.805 11.408C104.456 11.248 105.032 11.1253 105.533 11.04C106.035 10.9547 106.461 10.896 106.813 10.864L106.829 10.432C106.84 9.92 106.568 9.64267 106.013 9.6C105.501 9.568 104.424 9.79733 102.781 10.288H102.765L102.749 10.304H102.733H102.717L102.701 10.32H102.685H102.669L102.653 10.336H102.637H102.621L102.605 10.352H102.589H102.573H102.557L102.541 10.368H102.525H102.509L102.493 10.384H102.477ZM103.277 14.4C103.373 14.5493 103.555 14.6453 103.821 14.688C104.088 14.7307 104.488 14.6613 105.021 14.48C105.565 14.288 106.152 13.9573 106.781 13.488L106.797 12.08C103.981 12.9013 102.808 13.6747 103.277 14.4ZM110.312 9.472L109.832 8.352H111.144V6.624L113.112 7.072V8.352H115.064L115.544 9.472H113.112V11.504C113.112 11.6213 113.112 11.7973 113.112 12.032C113.112 12.32 113.107 12.608 113.096 12.896C113.096 13.184 113.112 13.456 113.144 13.712C113.187 13.968 113.235 14.2027 113.288 14.416C113.341 14.6293 113.432 14.8 113.56 14.928C113.688 15.056 113.843 15.1413 114.024 15.184C114.205 15.2267 114.435 15.2 114.712 15.104C115 14.9973 115.325 14.8267 115.688 14.592L116.12 15.088C115.501 15.6533 114.984 16.048 114.568 16.272C114.248 16.4533 113.805 16.4213 113.24 16.176C112.685 15.9413 112.195 15.6107 111.768 15.184C111.352 14.7467 111.144 14.368 111.144 14.048V9.472H110.312ZM119.062 7.344L118.406 6.912C118.672 6.05867 118.79 5.44 118.758 5.056C118.427 4.768 118.187 4.47467 118.038 4.176C118.059 4.00533 118.219 3.78667 118.518 3.52C118.816 3.25333 119.056 3.09867 119.238 3.056C119.526 3.19467 119.798 3.39733 120.054 3.664C120.32 3.92 120.448 4.15467 120.438 4.368C120.374 4.76267 120.187 5.29067 119.878 5.952C119.568 6.61333 119.296 7.07733 119.062 7.344ZM127.187 8.88L127.011 9.744C125.977 9.50933 125.294 9.41333 124.963 9.456C124.441 9.52 124.03 9.776 123.731 10.224C123.433 10.6613 123.326 11.0827 123.411 11.488C123.433 11.584 123.678 11.5733 124.147 11.456C124.617 11.3387 125.129 11.2213 125.683 11.104C126.238 10.976 126.595 10.9547 126.755 11.04C127.491 11.424 127.987 11.9307 128.243 12.56C128.499 13.1893 128.526 13.792 128.323 14.368C128.131 14.9333 127.731 15.424 127.123 15.84C126.515 16.256 125.785 16.464 124.931 16.464C124.227 16.464 123.571 16.272 122.963 15.888C122.366 15.4933 121.662 14.9067 120.851 14.128L121.139 13.584C121.865 14.128 122.633 14.496 123.443 14.688C124.254 14.8693 125.006 14.7947 125.699 14.464C126.403 14.1333 126.873 13.5253 127.107 12.64C127.118 12.5973 127.07 12.5813 126.963 12.592C126.846 12.6027 126.553 12.672 126.083 12.8C124.601 13.1947 123.657 13.312 123.251 13.152L123.107 13.072C122.521 12.624 122.046 12.1333 121.683 11.6C121.417 11.2373 121.305 10.8533 121.347 10.448C121.401 10.0427 121.539 9.67467 121.763 9.344C121.987 9.00267 122.323 8.72533 122.771 8.512C123.219 8.288 123.71 8.176 124.243 8.176C124.403 8.176 124.627 8.208 124.915 8.272C125.214 8.336 125.63 8.448 126.163 8.608C126.707 8.75733 127.049 8.848 127.187 8.88ZM137.766 5.984L141.126 14.128L145.014 5.344L147.222 5.984L147.254 16.464L145.014 16V10.608L142.374 16.464L140.294 16L140.31 15.968L140.294 15.984L137.766 9.696L137.798 16.464L135.558 16V5.344L137.766 5.984ZM150.071 10.384L149.207 8.928C149.954 8.736 150.78 8.55467 151.687 8.384C152.604 8.21333 153.18 8.13333 153.415 8.144C153.65 8.15467 154.119 8.50667 154.823 9.2C155.527 9.88267 156.002 10.4053 156.247 10.768C156.332 10.896 156.375 11.328 156.375 12.064C156.375 12.7893 156.359 13.6213 156.327 14.56C156.306 15.4987 156.3 16.1333 156.311 16.464L154.327 16L154.343 15.184C153.479 16.048 152.775 16.48 152.231 16.48C151.719 16.4693 151.068 15.984 150.279 15.024C149.49 14.064 149.095 13.376 149.095 12.96C149.095 12.6293 149.319 12.3253 149.767 12.048C150.215 11.7707 150.759 11.5573 151.399 11.408C152.05 11.248 152.626 11.1253 153.127 11.04C153.628 10.9547 154.055 10.896 154.407 10.864L154.423 10.432C154.434 9.92 154.162 9.64267 153.607 9.6C153.095 9.568 152.018 9.79733 150.375 10.288H150.359L150.343 10.304H150.327H150.311L150.295 10.32H150.279H150.263L150.247 10.336H150.231H150.215L150.199 10.352H150.183H150.167H150.151L150.135 10.368H150.119H150.103L150.087 10.384H150.071ZM150.871 14.4C150.967 14.5493 151.148 14.6453 151.415 14.688C151.682 14.7307 152.082 14.6613 152.615 14.48C153.159 14.288 153.746 13.9573 154.375 13.488L154.391 12.08C151.575 12.9013 150.402 13.6747 150.871 14.4ZM158.242 11.568L157.746 10.272H163.874L164.37 11.568H158.242ZM167.068 7.376C166.524 7.12 166.118 6.73067 165.852 6.208C165.873 6.03733 166.033 5.81867 166.332 5.552C166.63 5.28533 166.87 5.13067 167.052 5.088C167.596 5.33333 167.996 5.712 168.252 6.224C168.07 6.68267 167.676 7.06667 167.068 7.376ZM168.028 8.8V16.464L166.028 16.016V8.352L168.028 8.8ZM172.354 8.8V9.456C173.303 8.57067 174.135 8.14933 174.85 8.192C175.191 8.21333 175.788 8.64 176.642 9.472C177.506 10.2933 177.964 10.8533 178.018 11.152C178.06 11.4293 178.082 13.2 178.082 16.464L176.098 16.016C176.162 12.3573 176.135 10.4213 176.018 10.208C175.826 9.84533 175.506 9.73867 175.058 9.888C174.62 10.0267 174.162 10.2827 173.682 10.656C173.212 11.0293 172.77 11.4667 172.354 11.968V16.464L170.274 16.016V8.352L172.354 8.8ZM182.093 15.184C182.935 15.6107 183.954 15.4027 185.149 14.56V10.064C184.839 9.88267 184.407 9.76 183.853 9.696C183.415 9.65333 182.989 9.87733 182.573 10.368C182.157 10.848 181.842 11.408 181.629 12.048C181.415 12.688 181.335 13.3227 181.389 13.952C181.453 14.5707 181.687 14.9813 182.093 15.184ZM185.149 4.64L187.149 5.088C187.213 12.288 187.213 15.92 187.149 15.984C187.095 15.9947 186.818 16.0533 186.317 16.16C185.826 16.2773 185.511 16.3467 185.373 16.368C185.234 16.3893 184.946 16.4213 184.509 16.464C184.082 16.5067 183.741 16.5067 183.485 16.464C183.239 16.4213 182.93 16.3467 182.557 16.24C182.183 16.144 181.826 16 181.485 15.808C180.877 15.4773 180.407 15.072 180.077 14.592C179.746 14.112 179.57 13.6213 179.549 13.12C179.527 12.6187 179.586 12.112 179.725 11.6C179.863 11.0773 180.082 10.6027 180.381 10.176C180.69 9.73867 181.015 9.35467 181.357 9.024C181.709 8.69333 182.077 8.45867 182.461 8.32C182.845 8.17067 183.186 8.144 183.485 8.24C183.623 8.28267 183.767 8.34667 183.917 8.432C184.077 8.50667 184.205 8.576 184.301 8.64C184.407 8.704 184.551 8.8 184.733 8.928C184.925 9.056 185.063 9.14667 185.149 9.2V4.64ZM189.051 9.472L188.571 8.352H190.235V6.96C190.235 6.64 190.443 6.26667 190.859 5.84C191.286 5.40267 191.776 5.06667 192.331 4.832C192.896 4.58667 193.339 4.55467 193.659 4.736C194.299 5.088 194.891 5.50933 195.435 6L195.083 6.432C194.539 6.13333 194.08 5.97867 193.707 5.968C193.344 5.94667 193.046 6.06933 192.811 6.336C192.587 6.60267 192.427 6.90667 192.331 7.248C192.235 7.57867 192.182 7.94667 192.171 8.352H193.803L194.283 9.472H192.171L192.251 16.464L190.251 16.016C190.24 14.128 190.235 11.9467 190.235 9.472H189.051ZM200.962 8.368L202.962 8.816V16.48L200.962 16.032V15.232C200.109 16.1067 199.319 16.5173 198.594 16.464C198.253 16.4427 197.645 16.048 196.77 15.28C195.895 14.512 195.431 13.9787 195.378 13.68C195.335 13.4027 195.314 11.632 195.314 8.368L197.298 8.816C197.245 12.4853 197.271 14.432 197.378 14.656C197.591 14.9547 197.911 15.0507 198.338 14.944C198.775 14.8373 199.255 14.5333 199.778 14.032C200.311 13.5307 200.706 12.9813 200.962 12.384V8.368ZM206.977 5.088V16.464L204.977 16.016V4.64L206.977 5.088ZM210.916 8.8V9.456C211.865 8.57067 212.697 8.14933 213.412 8.192C213.753 8.21333 214.351 8.64 215.204 9.472C216.068 10.2933 216.527 10.8533 216.58 11.152C216.623 11.4293 216.644 13.2 216.644 16.464L214.66 16.016C214.724 12.3573 214.697 10.4213 214.58 10.208C214.388 9.84533 214.068 9.73867 213.62 9.888C213.183 10.0267 212.724 10.2827 212.244 10.656C211.775 11.0293 211.332 11.4667 210.916 11.968V16.464L208.836 16.016V8.352L210.916 8.8ZM220.015 12.816L223.647 10.336C222.879 9.84533 222.223 9.664 221.679 9.792C221.146 9.92 220.735 10.256 220.447 10.8C220.159 11.3333 220.015 12.0053 220.015 12.816ZM220.383 14.352C220.682 14.7147 221.018 14.9387 221.391 15.024C221.764 15.1093 222.154 15.0613 222.559 14.88C222.975 14.688 223.322 14.5013 223.599 14.32C223.876 14.128 224.202 13.8773 224.575 13.568L224.895 13.888C225.098 14.112 225.3 14.336 225.503 14.56L225.823 14.88C224.895 15.5627 224.111 16.016 223.471 16.24C222.831 16.4747 222.196 16.4747 221.567 16.24C220.65 15.888 219.786 15.2693 218.975 14.384C218.495 13.8507 218.218 13.2213 218.143 12.496C218.068 11.76 218.159 11.0773 218.415 10.448C218.682 9.81867 219.087 9.28533 219.631 8.848C220.186 8.4 220.788 8.176 221.439 8.176C221.866 8.176 222.495 8.45333 223.327 9.008C224.17 9.552 224.868 10.0853 225.423 10.608C225.412 10.64 224.986 10.9707 224.143 11.6C223.311 12.2187 222.474 12.832 221.631 13.44L220.383 14.352ZM232.875 8.88L232.699 9.744C231.664 9.50933 230.981 9.41333 230.651 9.456C230.128 9.52 229.717 9.776 229.419 10.224C229.12 10.6613 229.013 11.0827 229.099 11.488C229.12 11.584 229.365 11.5733 229.835 11.456C230.304 11.3387 230.816 11.2213 231.371 11.104C231.925 10.976 232.283 10.9547 232.443 11.04C233.179 11.424 233.675 11.9307 233.931 12.56C234.187 13.1893 234.213 13.792 234.011 14.368C233.819 14.9333 233.419 15.424 232.811 15.84C232.203 16.256 231.472 16.464 230.619 16.464C229.915 16.464 229.259 16.272 228.651 15.888C228.053 15.4933 227.349 14.9067 226.539 14.128L226.827 13.584C227.552 14.128 228.32 14.496 229.131 14.688C229.941 14.8693 230.693 14.7947 231.387 14.464C232.091 14.1333 232.56 13.5253 232.795 12.64C232.805 12.5973 232.757 12.5813 232.651 12.592C232.533 12.6027 232.24 12.672 231.771 12.8C230.288 13.1947 229.344 13.312 228.939 13.152L228.795 13.072C228.208 12.624 227.733 12.1333 227.371 11.6C227.104 11.2373 226.992 10.8533 227.035 10.448C227.088 10.0427 227.227 9.67467 227.451 9.344C227.675 9.00267 228.011 8.72533 228.459 8.512C228.907 8.288 229.397 8.176 229.931 8.176C230.091 8.176 230.315 8.208 230.603 8.272C230.901 8.336 231.317 8.448 231.851 8.608C232.395 8.75733 232.736 8.848 232.875 8.88ZM241.187 8.88L241.011 9.744C239.977 9.50933 239.294 9.41333 238.963 9.456C238.441 9.52 238.03 9.776 237.731 10.224C237.433 10.6613 237.326 11.0827 237.411 11.488C237.433 11.584 237.678 11.5733 238.147 11.456C238.617 11.3387 239.129 11.2213 239.683 11.104C240.238 10.976 240.595 10.9547 240.755 11.04C241.491 11.424 241.987 11.9307 242.243 12.56C242.499 13.1893 242.526 13.792 242.323 14.368C242.131 14.9333 241.731 15.424 241.123 15.84C240.515 16.256 239.785 16.464 238.931 16.464C238.227 16.464 237.571 16.272 236.963 15.888C236.366 15.4933 235.662 14.9067 234.851 14.128L235.139 13.584C235.865 14.128 236.633 14.496 237.443 14.688C238.254 14.8693 239.006 14.7947 239.699 14.464C240.403 14.1333 240.873 13.5253 241.107 12.64C241.118 12.5973 241.07 12.5813 240.963 12.592C240.846 12.6027 240.553 12.672 240.083 12.8C238.601 13.1947 237.657 13.312 237.251 13.152L237.107 13.072C236.521 12.624 236.046 12.1333 235.683 11.6C235.417 11.2373 235.305 10.8533 235.347 10.448C235.401 10.0427 235.539 9.67467 235.763 9.344C235.987 9.00267 236.323 8.72533 236.771 8.512C237.219 8.288 237.71 8.176 238.243 8.176C238.403 8.176 238.627 8.208 238.915 8.272C239.214 8.336 239.63 8.448 240.163 8.608C240.707 8.75733 241.049 8.848 241.187 8.88ZM246.668 16.352C246.124 16.096 245.718 15.7067 245.452 15.184C245.473 15.0133 245.633 14.7947 245.932 14.528C246.23 14.2613 246.47 14.1067 246.652 14.064C247.196 14.3093 247.596 14.688 247.852 15.2C247.67 15.6587 247.276 16.0427 246.668 16.352ZM244.556 7.312L243.308 5.968C243.66 5.49867 244.252 5.13067 245.084 4.864C245.926 4.58667 246.556 4.576 246.972 4.832C247.484 5.14133 248.054 5.648 248.684 6.352C249.324 7.056 249.697 7.55733 249.804 7.856C249.857 7.99467 249.878 8.14933 249.868 8.32C249.868 8.48 249.846 8.64 249.804 8.8C249.772 8.94933 249.708 9.12 249.612 9.312C249.526 9.504 249.436 9.68 249.34 9.84C249.244 10 249.116 10.1867 248.956 10.4C248.806 10.6133 248.668 10.7947 248.54 10.944C248.422 11.0933 248.262 11.28 248.06 11.504C247.868 11.728 247.708 11.9093 247.58 12.048C247.462 12.176 247.302 12.352 247.1 12.576C246.897 12.7893 246.748 12.9493 246.652 13.056L245.148 11.76C245.158 11.7493 245.174 11.7333 245.196 11.712C245.313 11.5947 245.42 11.488 245.516 11.392C245.622 11.296 245.793 11.1307 246.028 10.896C246.262 10.6507 246.465 10.4213 246.636 10.208C246.817 9.984 247.02 9.728 247.244 9.44C247.468 9.152 247.644 8.88 247.772 8.624C247.91 8.368 248.022 8.112 248.108 7.856C248.204 7.58933 248.236 7.34933 248.204 7.136C248.172 6.912 248.076 6.72 247.916 6.56C247.628 6.304 247.265 6.20267 246.828 6.256C246.39 6.29867 245.958 6.42667 245.532 6.64C245.116 6.84267 244.79 7.06667 244.556 7.312Z" fill="white"/>
<path d="M258.5 12H324" stroke="white"/>
</svg>
